<svg width="6" height="11" viewBox="0 0 6 11" fill="none" xmlns="http://www.w3.org/2000/svg">
<path id="Vector" d="M0.84851 0.468361C0.793161 0.53073 0.749245 0.604841 0.719279 0.686445C0.689314 0.768048 0.673888 0.855538 0.673888 0.943896C0.673888 1.03225 0.689314 1.11974 0.719279 1.20135C0.749245 1.28295 0.793161 1.35706 0.84851 1.41943L4.38552 5.41896L0.848511 9.41961C0.736976 9.54573 0.674316 9.71679 0.674316 9.89515C0.674316 10.0735 0.736976 10.2446 0.848511 10.3707C0.960046 10.4968 1.11132 10.5677 1.26905 10.5677C1.42679 10.5677 1.57806 10.4968 1.6896 10.3707L5.64764 5.89506C5.70299 5.83269 5.74691 5.75858 5.77687 5.67697C5.80684 5.59537 5.82227 5.50788 5.82227 5.41952C5.82227 5.33116 5.80684 5.24367 5.77687 5.16207C5.74691 5.08047 5.70299 5.00636 5.64764 4.94399L1.6896 0.468361C1.63444 0.405773 1.5689 0.356114 1.49673 0.32223C1.42456 0.288346 1.34719 0.270903 1.26905 0.270903C1.19091 0.270903 1.11354 0.288346 1.04138 0.32223C0.969209 0.356114 0.903668 0.405773 0.84851 0.468361Z" fill="white"/>
</svg>
