<svg width="21" height="21" viewBox="0 0 21 21" fill="none" xmlns="http://www.w3.org/2000/svg">
<g id="ic:baseline-people-alt">
<path id="Vector" fill-rule="evenodd" clip-rule="evenodd" d="M14.5864 11.4888C15.7852 12.3025 16.6252 13.405 16.6252 14.875V17.5H20.1252V14.875C20.1252 12.9675 17.0014 11.8388 14.5864 11.4888Z" fill="white"/>
<path id="Vector_2" d="M7.875 10.5C9.808 10.5 11.375 8.933 11.375 7C11.375 5.067 9.808 3.5 7.875 3.5C5.942 3.5 4.375 5.067 4.375 7C4.375 8.933 5.942 10.5 7.875 10.5Z" fill="white"/>
<path id="Vector_3" fill-rule="evenodd" clip-rule="evenodd" d="M13.125 10.5C15.0588 10.5 16.625 8.93375 16.625 7C16.625 5.06625 15.0588 3.5 13.125 3.5C12.7137 3.5 12.3287 3.5875 11.9613 3.71C12.7142 4.64119 13.125 5.80248 13.125 7C13.125 8.19752 12.7142 9.35881 11.9613 10.29C12.3287 10.4125 12.7137 10.5 13.125 10.5ZM7.875 11.375C5.53875 11.375 0.875 12.5475 0.875 14.875V17.5H14.875V14.875C14.875 12.5475 10.2113 11.375 7.875 11.375Z" fill="white"/>
</g>
</svg>
