<svg width="28" height="28" viewBox="0 0 28 28" fill="none" xmlns="http://www.w3.org/2000/svg">
<g id="healthicons:i-training-class">
<path id="Vector" fill-rule="evenodd" clip-rule="evenodd" d="M3.5 3.5H21.5833V6.41667H20.4167V4.66667H4.66667V18.0833H17.1424V19.25H3.5V3.5ZM21 11.0833C21.4641 11.0833 21.9092 10.899 22.2374 10.5708C22.5656 10.2426 22.75 9.79746 22.75 9.33333C22.75 8.8692 22.5656 8.42408 22.2374 8.0959C21.9092 7.76771 21.4641 7.58333 21 7.58333C20.5359 7.58333 20.0908 7.76771 19.7626 8.0959C19.4344 8.42408 19.25 8.8692 19.25 9.33333C19.25 9.79746 19.4344 10.2426 19.7626 10.5708C20.0908 10.899 20.5359 11.0833 21 11.0833ZM22.1847 12.2558C22.9425 12.2558 23.5422 12.5965 23.9347 13.1227C24.3017 13.6156 24.4568 14.2252 24.4918 14.7881C24.5261 15.3655 24.4475 15.9441 24.2603 16.4914C24.0852 16.9989 23.7895 17.5239 23.3333 17.8838V23.625C23.3338 23.8448 23.2514 24.0568 23.1027 24.2187C22.9539 24.3806 22.7497 24.4805 22.5306 24.4987C22.3115 24.5169 22.0936 24.4519 21.9203 24.3167C21.7469 24.1815 21.6308 23.986 21.595 23.7691L20.8425 19.25H20.6687L19.8182 23.786C19.7778 24.0001 19.659 24.1914 19.485 24.3225C19.311 24.4537 19.0944 24.5152 18.8775 24.4951C18.6605 24.4749 18.4589 24.3746 18.3121 24.2137C18.1652 24.0528 18.0836 23.8429 18.0833 23.625V15.3026C17.9667 15.4803 17.8516 15.659 17.738 15.8387L17.6925 15.9104L17.6808 15.9291L17.6779 15.9343C17.5993 16.0606 17.4898 16.1647 17.3598 16.2368C17.2297 16.309 17.0835 16.3468 16.9347 16.3468H14.0181C13.786 16.3468 13.5635 16.2546 13.3994 16.0905C13.2353 15.9264 13.1431 15.7038 13.1431 15.4718C13.1431 15.2397 13.2353 15.0171 13.3994 14.853C13.5635 14.6889 13.786 14.5968 14.0181 14.5968H16.4547C16.5964 14.3774 16.7831 14.0927 16.9791 13.8069C17.1832 13.5088 17.4084 13.1932 17.6091 12.9459C17.7065 12.8252 17.8156 12.6992 17.9252 12.5959C17.9789 12.5452 18.0536 12.4792 18.1446 12.4209C18.3052 12.3155 18.4927 12.2584 18.6847 12.2564L22.1847 12.2558Z" fill="white"/>
</g>
</svg>
