<svg width="6" height="11" viewBox="0 0 6 11" fill="none" xmlns="http://www.w3.org/2000/svg">
<path id="Vector" d="M0.847534 0.34388C0.792184 0.406249 0.748269 0.48036 0.718303 0.561963C0.688337 0.643566 0.672912 0.731056 0.672912 0.819414C0.672912 0.907773 0.688337 0.995261 0.718303 1.07686C0.748269 1.15847 0.792184 1.23258 0.847534 1.29495L4.38454 5.29448L0.847534 9.29513C0.736 9.42125 0.67334 9.59231 0.67334 9.77067C0.67334 9.94903 0.736 10.1201 0.847534 10.2462C0.959069 10.3723 1.11034 10.4432 1.26808 10.4432C1.42581 10.4432 1.57708 10.3723 1.68862 10.2462L5.64667 5.77058C5.70202 5.70821 5.74593 5.63409 5.7759 5.55249C5.80586 5.47089 5.82129 5.3834 5.82129 5.29504C5.82129 5.20668 5.80586 5.11919 5.7759 5.03759C5.74593 4.95599 5.70202 4.88188 5.64667 4.81951L1.68862 0.34388C1.63346 0.281292 1.56792 0.231632 1.49575 0.197748C1.42359 0.163864 1.34622 0.146422 1.26808 0.146422C1.18994 0.146422 1.11256 0.163864 1.0404 0.197748C0.968232 0.231632 0.902691 0.281292 0.847534 0.34388Z" fill="white"/>
</svg>
