<svg xmlns="http://www.w3.org/2000/svg" xmlns:xlink="http://www.w3.org/1999/xlink" width="700" zoomAndPan="magnify" viewBox="0 0 525 525.000007" height="700" preserveAspectRatio="xMidYMid meet" version="1.0"><defs><g/><clipPath id="4e4af35e09"><path d="M 73.210938 52.398438 L 446 52.398438 L 446 399.738281 L 73.210938 399.738281 Z M 73.210938 52.398438 " clip-rule="nonzero"/></clipPath><clipPath id="fa1895519c"><path d="M 198.789062 129.117188 C 187.585938 120.910156 175.875 114.347656 164.59375 109.121094 C 168.886719 89.8125 175.085938 74.179688 178.636719 66.105469 C 186.28125 70.113281 200.410156 78.207031 215.433594 90.179688 C 209.167969 101.414062 203.097656 114.609375 198.789062 129.117188 Z M 173.757812 257.582031 C 195.34375 259.324219 214.757812 265.753906 229.976562 272.601562 C 227.941406 269.769531 225.867188 266.765625 223.789062 263.589844 C 209.546875 241.828125 192.570312 207.917969 192.570312 169.980469 C 192.570312 160.796875 193.570312 151.855469 195.28125 143.257812 C 162.191406 117.261719 121.769531 107.296875 105.679688 104.183594 C 105.015625 124.632812 106.359375 184.488281 140.839844 227.722656 C 149.679688 238.8125 160.753906 248.847656 173.757812 257.582031 Z M 354.414062 109 C 350.125 89.746094 343.945312 74.164062 340.398438 66.105469 C 332.757812 70.113281 318.625 78.207031 303.605469 90.179688 C 309.855469 101.386719 315.90625 114.539062 320.214844 129.003906 C 331.417969 120.792969 343.132812 114.230469 354.414062 109 Z M 326.46875 169.980469 C 326.46875 207.917969 309.488281 241.828125 295.246094 263.589844 C 293.15625 266.785156 291.070312 269.808594 289.019531 272.65625 C 304.171875 265.835938 323.492188 259.421875 344.976562 257.644531 C 358.105469 248.867188 369.28125 238.761719 378.199219 227.582031 C 412.753906 184.261719 414.046875 124.472656 413.363281 104.039062 C 397.277344 107.152344 356.828125 117.125 323.734375 143.140625 C 325.457031 151.769531 326.46875 160.753906 326.46875 169.980469 Z M 367.390625 257.578125 C 373.480469 258.046875 379.398438 258.890625 385.101562 260.015625 C 387.152344 258.480469 389.15625 256.882812 391.070312 255.242188 C 433.082031 219.324219 443.355469 158.128906 445.648438 138.09375 C 440.929688 137.882812 433.925781 137.75 425.460938 138.132812 C 425.253906 140.058594 425.027344 142.019531 424.765625 144.027344 C 421.453125 169.464844 412.496094 206.054688 388.667969 235.933594 C 382.503906 243.652344 375.382812 250.890625 367.390625 257.578125 Z M 259.511719 287.589844 C 273.257812 272.816406 313.078125 225.246094 313.078125 169.980469 C 313.078125 114.609375 273.277344 67.121094 259.523438 52.371094 C 245.78125 67.140625 205.960938 114.714844 205.960938 169.980469 C 205.960938 225.351562 245.761719 272.835938 259.511719 287.589844 Z M 224.46875 324.347656 C 233.148438 359.363281 250.765625 387.464844 259.519531 399.921875 C 268.269531 387.472656 285.878906 359.386719 294.558594 324.382812 C 277.96875 317.515625 265.550781 309.695312 259.492188 305.539062 C 253.414062 309.703125 241.019531 317.5 224.46875 324.347656 Z M 127.960938 255.238281 C 129.886719 256.878906 131.878906 258.46875 133.902344 259.984375 C 139.554688 258.867188 145.417969 258.027344 151.449219 257.554688 C 143.535156 250.914062 136.476562 243.730469 130.371094 236.074219 C 106.539062 206.191406 97.585938 169.601562 94.273438 144.167969 C 94.003906 142.109375 93.769531 140.101562 93.5625 138.132812 C 85.101562 137.75 78.101562 137.878906 73.386719 138.089844 C 75.679688 158.125 85.953125 219.320312 127.960938 255.238281 Z M 271.429688 297.316406 C 285.910156 306.429688 318.859375 324.101562 356.59375 324.101562 C 394.429688 324.101562 427.304688 306.449219 441.757812 297.332031 C 427.277344 288.21875 394.332031 270.542969 356.59375 270.542969 C 318.761719 270.542969 285.882812 288.195312 271.429688 297.316406 Z M 302.277344 345.550781 C 313.519531 350.851562 323.484375 354.152344 329.617188 355.933594 C 330.570312 351.160156 331.765625 344.019531 332.496094 335.433594 C 323.515625 333.929688 315.027344 331.699219 307.191406 329.09375 C 305.738281 334.78125 304.078125 340.273438 302.277344 345.550781 Z M 186.542969 335.398438 C 187.273438 343.976562 188.46875 351.121094 189.417969 355.894531 C 195.566406 354.105469 205.546875 350.796875 216.75 345.515625 C 214.949219 340.238281 213.289062 334.746094 211.839844 329.058594 C 204.007812 331.664062 195.519531 333.890625 186.542969 335.398438 Z M 162.441406 270.507812 C 124.609375 270.507812 91.734375 288.160156 77.277344 297.277344 C 91.757812 306.390625 124.707031 324.066406 162.441406 324.066406 C 200.277344 324.066406 233.152344 306.410156 247.605469 297.292969 C 233.128906 288.179688 200.179688 270.507812 162.441406 270.507812 Z M 162.441406 270.507812 " clip-rule="nonzero"/></clipPath><linearGradient x1="34.392408" gradientTransform="matrix(0.836862, 0, 0, 0.836862, 45.281708, 15.99671)" y1="459.354794" x2="464.330402" gradientUnits="userSpaceOnUse" y2="29.415427" id="339bb784d9"><stop stop-opacity="1" stop-color="rgb(0%, 28.999329%, 67.799377%)" offset="0"/><stop stop-opacity="1" stop-color="rgb(0%, 28.999329%, 67.799377%)" offset="0.125"/><stop stop-opacity="1" stop-color="rgb(0%, 28.999329%, 67.799377%)" offset="0.140625"/><stop stop-opacity="1" stop-color="rgb(0.0869751%, 28.990173%, 67.756653%)" offset="0.148438"/><stop stop-opacity="1" stop-color="rgb(1.231384%, 28.878784%, 67.199707%)" offset="0.152344"/><stop stop-opacity="1" stop-color="rgb(2.290344%, 28.775024%, 66.685486%)" offset="0.15625"/><stop stop-opacity="1" stop-color="rgb(3.347778%, 28.671265%, 66.171265%)" offset="0.160156"/><stop stop-opacity="1" stop-color="rgb(4.405212%, 28.567505%, 65.657043%)" offset="0.164062"/><stop stop-opacity="1" stop-color="rgb(5.462646%, 28.463745%, 65.142822%)" offset="0.167969"/><stop stop-opacity="1" stop-color="rgb(6.521606%, 28.359985%, 64.628601%)" offset="0.171875"/><stop stop-opacity="1" stop-color="rgb(7.579041%, 28.256226%, 64.11438%)" offset="0.175781"/><stop stop-opacity="1" stop-color="rgb(8.638%, 28.152466%, 63.601685%)" offset="0.179688"/><stop stop-opacity="1" stop-color="rgb(9.695435%, 28.048706%, 63.087463%)" offset="0.183594"/><stop stop-opacity="1" stop-color="rgb(10.752869%, 27.944946%, 62.573242%)" offset="0.1875"/><stop stop-opacity="1" stop-color="rgb(11.810303%, 27.841187%, 62.059021%)" offset="0.191406"/><stop stop-opacity="1" stop-color="rgb(12.869263%, 27.737427%, 61.5448%)" offset="0.195313"/><stop stop-opacity="1" stop-color="rgb(13.926697%, 27.633667%, 61.030579%)" offset="0.199219"/><stop stop-opacity="1" stop-color="rgb(14.984131%, 27.531433%, 60.516357%)" offset="0.203125"/><stop stop-opacity="1" stop-color="rgb(16.041565%, 27.427673%, 60.002136%)" offset="0.207031"/><stop stop-opacity="1" stop-color="rgb(17.100525%, 27.323914%, 59.487915%)" offset="0.210937"/><stop stop-opacity="1" stop-color="rgb(18.157959%, 27.220154%, 58.973694%)" offset="0.214844"/><stop stop-opacity="1" stop-color="rgb(19.215393%, 27.116394%, 58.459473%)" offset="0.21875"/><stop stop-opacity="1" stop-color="rgb(20.272827%, 27.012634%, 57.945251%)" offset="0.222656"/><stop stop-opacity="1" stop-color="rgb(21.331787%, 26.908875%, 57.43103%)" offset="0.226563"/><stop stop-opacity="1" stop-color="rgb(22.389221%, 26.805115%, 56.916809%)" offset="0.230469"/><stop stop-opacity="1" stop-color="rgb(23.446655%, 26.701355%, 56.404114%)" offset="0.234375"/><stop stop-opacity="1" stop-color="rgb(24.504089%, 26.597595%, 55.889893%)" offset="0.238281"/><stop stop-opacity="1" stop-color="rgb(25.563049%, 26.493835%, 55.375671%)" offset="0.242187"/><stop stop-opacity="1" stop-color="rgb(26.620483%, 26.390076%, 54.86145%)" offset="0.246094"/><stop stop-opacity="1" stop-color="rgb(27.679443%, 26.286316%, 54.347229%)" offset="0.25"/><stop stop-opacity="1" stop-color="rgb(28.736877%, 26.182556%, 53.833008%)" offset="0.253906"/><stop stop-opacity="1" stop-color="rgb(29.794312%, 26.078796%, 53.318787%)" offset="0.257812"/><stop stop-opacity="1" stop-color="rgb(30.851746%, 25.975037%, 52.804565%)" offset="0.261719"/><stop stop-opacity="1" stop-color="rgb(31.910706%, 25.871277%, 52.290344%)" offset="0.265625"/><stop stop-opacity="1" stop-color="rgb(32.96814%, 25.767517%, 51.776123%)" offset="0.269531"/><stop stop-opacity="1" stop-color="rgb(34.025574%, 25.665283%, 51.261902%)" offset="0.273438"/><stop stop-opacity="1" stop-color="rgb(35.083008%, 25.561523%, 50.747681%)" offset="0.277344"/><stop stop-opacity="1" stop-color="rgb(36.141968%, 25.457764%, 50.233459%)" offset="0.28125"/><stop stop-opacity="1" stop-color="rgb(37.199402%, 25.354004%, 49.719238%)" offset="0.285156"/><stop stop-opacity="1" stop-color="rgb(38.256836%, 25.250244%, 49.206543%)" offset="0.289062"/><stop stop-opacity="1" stop-color="rgb(39.31427%, 25.146484%, 48.692322%)" offset="0.292969"/><stop stop-opacity="1" stop-color="rgb(40.37323%, 25.042725%, 48.178101%)" offset="0.296875"/><stop stop-opacity="1" stop-color="rgb(41.430664%, 24.938965%, 47.663879%)" offset="0.300781"/><stop stop-opacity="1" stop-color="rgb(42.488098%, 24.835205%, 47.149658%)" offset="0.304688"/><stop stop-opacity="1" stop-color="rgb(43.545532%, 24.731445%, 46.635437%)" offset="0.308594"/><stop stop-opacity="1" stop-color="rgb(44.604492%, 24.627686%, 46.121216%)" offset="0.3125"/><stop stop-opacity="1" stop-color="rgb(45.661926%, 24.523926%, 45.606995%)" offset="0.316406"/><stop stop-opacity="1" stop-color="rgb(46.71936%, 24.420166%, 45.092773%)" offset="0.320312"/><stop stop-opacity="1" stop-color="rgb(47.776794%, 24.316406%, 44.578552%)" offset="0.324219"/><stop stop-opacity="1" stop-color="rgb(48.835754%, 24.212646%, 44.064331%)" offset="0.328125"/><stop stop-opacity="1" stop-color="rgb(49.893188%, 24.108887%, 43.55011%)" offset="0.332031"/><stop stop-opacity="1" stop-color="rgb(50.952148%, 24.006653%, 43.035889%)" offset="0.335938"/><stop stop-opacity="1" stop-color="rgb(52.009583%, 23.902893%, 42.521667%)" offset="0.339844"/><stop stop-opacity="1" stop-color="rgb(53.067017%, 23.799133%, 42.008972%)" offset="0.34375"/><stop stop-opacity="1" stop-color="rgb(54.124451%, 23.695374%, 41.494751%)" offset="0.347656"/><stop stop-opacity="1" stop-color="rgb(55.183411%, 23.591614%, 40.98053%)" offset="0.351562"/><stop stop-opacity="1" stop-color="rgb(56.240845%, 23.487854%, 40.466309%)" offset="0.355469"/><stop stop-opacity="1" stop-color="rgb(57.298279%, 23.384094%, 39.952087%)" offset="0.359375"/><stop stop-opacity="1" stop-color="rgb(58.355713%, 23.280334%, 39.437866%)" offset="0.363281"/><stop stop-opacity="1" stop-color="rgb(59.414673%, 23.176575%, 38.923645%)" offset="0.367188"/><stop stop-opacity="1" stop-color="rgb(60.472107%, 23.072815%, 38.409424%)" offset="0.371094"/><stop stop-opacity="1" stop-color="rgb(61.529541%, 22.969055%, 37.895203%)" offset="0.375"/><stop stop-opacity="1" stop-color="rgb(62.586975%, 22.865295%, 37.380981%)" offset="0.378906"/><stop stop-opacity="1" stop-color="rgb(63.645935%, 22.761536%, 36.86676%)" offset="0.382812"/><stop stop-opacity="1" stop-color="rgb(64.703369%, 22.657776%, 36.352539%)" offset="0.386719"/><stop stop-opacity="1" stop-color="rgb(65.760803%, 22.554016%, 35.838318%)" offset="0.390625"/><stop stop-opacity="1" stop-color="rgb(66.818237%, 22.450256%, 35.324097%)" offset="0.394531"/><stop stop-opacity="1" stop-color="rgb(67.877197%, 22.346497%, 34.809875%)" offset="0.398438"/><stop stop-opacity="1" stop-color="rgb(68.934631%, 22.242737%, 34.295654%)" offset="0.402344"/><stop stop-opacity="1" stop-color="rgb(69.992065%, 22.140503%, 33.782959%)" offset="0.40625"/><stop stop-opacity="1" stop-color="rgb(71.0495%, 22.036743%, 33.268738%)" offset="0.410156"/><stop stop-opacity="1" stop-color="rgb(72.108459%, 21.932983%, 32.754517%)" offset="0.414062"/><stop stop-opacity="1" stop-color="rgb(73.165894%, 21.829224%, 32.240295%)" offset="0.417969"/><stop stop-opacity="1" stop-color="rgb(74.224854%, 21.725464%, 31.726074%)" offset="0.421875"/><stop stop-opacity="1" stop-color="rgb(75.282288%, 21.621704%, 31.211853%)" offset="0.425781"/><stop stop-opacity="1" stop-color="rgb(76.339722%, 21.517944%, 30.697632%)" offset="0.429688"/><stop stop-opacity="1" stop-color="rgb(77.397156%, 21.414185%, 30.183411%)" offset="0.433594"/><stop stop-opacity="1" stop-color="rgb(78.456116%, 21.310425%, 29.669189%)" offset="0.4375"/><stop stop-opacity="1" stop-color="rgb(79.51355%, 21.206665%, 29.154968%)" offset="0.441406"/><stop stop-opacity="1" stop-color="rgb(80.570984%, 21.102905%, 28.640747%)" offset="0.445312"/><stop stop-opacity="1" stop-color="rgb(81.628418%, 20.999146%, 28.126526%)" offset="0.449219"/><stop stop-opacity="1" stop-color="rgb(82.687378%, 20.895386%, 27.612305%)" offset="0.453125"/><stop stop-opacity="1" stop-color="rgb(83.744812%, 20.791626%, 27.098083%)" offset="0.457031"/><stop stop-opacity="1" stop-color="rgb(84.802246%, 20.687866%, 26.585388%)" offset="0.460938"/><stop stop-opacity="1" stop-color="rgb(85.85968%, 20.584106%, 26.071167%)" offset="0.464844"/><stop stop-opacity="1" stop-color="rgb(86.91864%, 20.481873%, 25.556946%)" offset="0.46875"/><stop stop-opacity="1" stop-color="rgb(87.976074%, 20.378113%, 25.042725%)" offset="0.472656"/><stop stop-opacity="1" stop-color="rgb(89.033508%, 20.274353%, 24.528503%)" offset="0.476562"/><stop stop-opacity="1" stop-color="rgb(90.090942%, 20.170593%, 24.014282%)" offset="0.480469"/><stop stop-opacity="1" stop-color="rgb(91.149902%, 20.066833%, 23.500061%)" offset="0.484375"/><stop stop-opacity="1" stop-color="rgb(92.207336%, 19.963074%, 22.98584%)" offset="0.488281"/><stop stop-opacity="1" stop-color="rgb(93.264771%, 19.859314%, 22.471619%)" offset="0.492188"/><stop stop-opacity="1" stop-color="rgb(94.322205%, 19.755554%, 21.957397%)" offset="0.496094"/><stop stop-opacity="1" stop-color="rgb(95.381165%, 19.651794%, 21.443176%)" offset="0.5"/><stop stop-opacity="1" stop-color="rgb(96.438599%, 19.548035%, 20.928955%)" offset="0.503906"/><stop stop-opacity="1" stop-color="rgb(97.497559%, 19.444275%, 20.414734%)" offset="0.507813"/><stop stop-opacity="1" stop-color="rgb(98.554993%, 19.340515%, 19.900513%)" offset="0.511719"/><stop stop-opacity="1" stop-color="rgb(99.612427%, 19.236755%, 19.387817%)" offset="0.515625"/><stop stop-opacity="1" stop-color="rgb(99.806213%, 19.828796%, 19.43512%)" offset="0.519531"/><stop stop-opacity="1" stop-color="rgb(100%, 20.422363%, 19.482422%)" offset="0.523438"/><stop stop-opacity="1" stop-color="rgb(100%, 21.170044%, 19.654846%)" offset="0.527344"/><stop stop-opacity="1" stop-color="rgb(100%, 21.917725%, 19.827271%)" offset="0.53125"/><stop stop-opacity="1" stop-color="rgb(100%, 22.665405%, 19.999695%)" offset="0.535156"/><stop stop-opacity="1" stop-color="rgb(100%, 23.414612%, 20.173645%)" offset="0.539062"/><stop stop-opacity="1" stop-color="rgb(100%, 24.162292%, 20.346069%)" offset="0.542969"/><stop stop-opacity="1" stop-color="rgb(100%, 24.909973%, 20.52002%)" offset="0.546875"/><stop stop-opacity="1" stop-color="rgb(100%, 25.657654%, 20.692444%)" offset="0.550781"/><stop stop-opacity="1" stop-color="rgb(100%, 26.40686%, 20.866394%)" offset="0.554688"/><stop stop-opacity="1" stop-color="rgb(100%, 27.154541%, 21.038818%)" offset="0.558594"/><stop stop-opacity="1" stop-color="rgb(100%, 27.902222%, 21.211243%)" offset="0.5625"/><stop stop-opacity="1" stop-color="rgb(100%, 28.649902%, 21.383667%)" offset="0.566406"/><stop stop-opacity="1" stop-color="rgb(100%, 29.399109%, 21.557617%)" offset="0.570312"/><stop stop-opacity="1" stop-color="rgb(100%, 30.14679%, 21.730042%)" offset="0.574219"/><stop stop-opacity="1" stop-color="rgb(100%, 30.89447%, 21.903992%)" offset="0.578125"/><stop stop-opacity="1" stop-color="rgb(100%, 31.642151%, 22.076416%)" offset="0.582031"/><stop stop-opacity="1" stop-color="rgb(100%, 32.391357%, 22.24884%)" offset="0.585938"/><stop stop-opacity="1" stop-color="rgb(100%, 33.139038%, 22.421265%)" offset="0.589844"/><stop stop-opacity="1" stop-color="rgb(100%, 33.888245%, 22.595215%)" offset="0.59375"/><stop stop-opacity="1" stop-color="rgb(100%, 34.635925%, 22.767639%)" offset="0.597656"/><stop stop-opacity="1" stop-color="rgb(100%, 35.383606%, 22.941589%)" offset="0.601563"/><stop stop-opacity="1" stop-color="rgb(100%, 36.131287%, 23.114014%)" offset="0.605469"/><stop stop-opacity="1" stop-color="rgb(100%, 36.880493%, 23.287964%)" offset="0.609375"/><stop stop-opacity="1" stop-color="rgb(100%, 37.628174%, 23.460388%)" offset="0.613281"/><stop stop-opacity="1" stop-color="rgb(100%, 38.375854%, 23.632812%)" offset="0.617188"/><stop stop-opacity="1" stop-color="rgb(100%, 39.123535%, 23.805237%)" offset="0.621094"/><stop stop-opacity="1" stop-color="rgb(100%, 39.872742%, 23.979187%)" offset="0.625"/><stop stop-opacity="1" stop-color="rgb(100%, 40.620422%, 24.151611%)" offset="0.628906"/><stop stop-opacity="1" stop-color="rgb(100%, 41.368103%, 24.325562%)" offset="0.632812"/><stop stop-opacity="1" stop-color="rgb(100%, 42.115784%, 24.497986%)" offset="0.636719"/><stop stop-opacity="1" stop-color="rgb(100%, 42.86499%, 24.671936%)" offset="0.640625"/><stop stop-opacity="1" stop-color="rgb(100%, 43.612671%, 24.84436%)" offset="0.644531"/><stop stop-opacity="1" stop-color="rgb(100%, 44.360352%, 25.016785%)" offset="0.648438"/><stop stop-opacity="1" stop-color="rgb(100%, 45.108032%, 25.189209%)" offset="0.652344"/><stop stop-opacity="1" stop-color="rgb(100%, 45.857239%, 25.363159%)" offset="0.65625"/><stop stop-opacity="1" stop-color="rgb(100%, 46.604919%, 25.535583%)" offset="0.660156"/><stop stop-opacity="1" stop-color="rgb(100%, 47.3526%, 25.709534%)" offset="0.664063"/><stop stop-opacity="1" stop-color="rgb(100%, 48.100281%, 25.881958%)" offset="0.667969"/><stop stop-opacity="1" stop-color="rgb(100%, 48.849487%, 26.054382%)" offset="0.671875"/><stop stop-opacity="1" stop-color="rgb(100%, 49.597168%, 26.226807%)" offset="0.675781"/><stop stop-opacity="1" stop-color="rgb(100%, 50.344849%, 26.400757%)" offset="0.679688"/><stop stop-opacity="1" stop-color="rgb(100%, 51.092529%, 26.573181%)" offset="0.683594"/><stop stop-opacity="1" stop-color="rgb(100%, 51.841736%, 26.747131%)" offset="0.6875"/><stop stop-opacity="1" stop-color="rgb(100%, 52.589417%, 26.919556%)" offset="0.691406"/><stop stop-opacity="1" stop-color="rgb(100%, 53.337097%, 27.093506%)" offset="0.695312"/><stop stop-opacity="1" stop-color="rgb(100%, 54.084778%, 27.26593%)" offset="0.699219"/><stop stop-opacity="1" stop-color="rgb(100%, 54.833984%, 27.438354%)" offset="0.703125"/><stop stop-opacity="1" stop-color="rgb(100%, 55.581665%, 27.610779%)" offset="0.707031"/><stop stop-opacity="1" stop-color="rgb(100%, 56.329346%, 27.784729%)" offset="0.710938"/><stop stop-opacity="1" stop-color="rgb(100%, 57.077026%, 27.957153%)" offset="0.714844"/><stop stop-opacity="1" stop-color="rgb(100%, 57.826233%, 28.131104%)" offset="0.71875"/><stop stop-opacity="1" stop-color="rgb(100%, 58.573914%, 28.303528%)" offset="0.722656"/><stop stop-opacity="1" stop-color="rgb(100%, 59.32312%, 28.475952%)" offset="0.726563"/><stop stop-opacity="1" stop-color="rgb(100%, 60.070801%, 28.648376%)" offset="0.730469"/><stop stop-opacity="1" stop-color="rgb(100%, 60.818481%, 28.822327%)" offset="0.734375"/><stop stop-opacity="1" stop-color="rgb(100%, 61.566162%, 28.994751%)" offset="0.738281"/><stop stop-opacity="1" stop-color="rgb(100%, 62.315369%, 29.168701%)" offset="0.742188"/><stop stop-opacity="1" stop-color="rgb(100%, 63.063049%, 29.341125%)" offset="0.746094"/><stop stop-opacity="1" stop-color="rgb(100%, 63.81073%, 29.515076%)" offset="0.75"/><stop stop-opacity="1" stop-color="rgb(100%, 64.558411%, 29.6875%)" offset="0.753906"/><stop stop-opacity="1" stop-color="rgb(100%, 65.307617%, 29.859924%)" offset="0.757812"/><stop stop-opacity="1" stop-color="rgb(100%, 66.055298%, 30.032349%)" offset="0.761719"/><stop stop-opacity="1" stop-color="rgb(100%, 66.802979%, 30.206299%)" offset="0.765625"/><stop stop-opacity="1" stop-color="rgb(100%, 67.550659%, 30.378723%)" offset="0.769531"/><stop stop-opacity="1" stop-color="rgb(100%, 68.299866%, 30.552673%)" offset="0.773438"/><stop stop-opacity="1" stop-color="rgb(100%, 69.047546%, 30.725098%)" offset="0.777344"/><stop stop-opacity="1" stop-color="rgb(100%, 69.795227%, 30.897522%)" offset="0.78125"/><stop stop-opacity="1" stop-color="rgb(100%, 70.542908%, 31.069946%)" offset="0.785156"/><stop stop-opacity="1" stop-color="rgb(100%, 71.292114%, 31.243896%)" offset="0.789063"/><stop stop-opacity="1" stop-color="rgb(100%, 72.039795%, 31.416321%)" offset="0.792969"/><stop stop-opacity="1" stop-color="rgb(100%, 72.787476%, 31.590271%)" offset="0.796875"/><stop stop-opacity="1" stop-color="rgb(100%, 73.535156%, 31.762695%)" offset="0.800781"/><stop stop-opacity="1" stop-color="rgb(100%, 74.284363%, 31.936646%)" offset="0.804688"/><stop stop-opacity="1" stop-color="rgb(100%, 75.032043%, 32.10907%)" offset="0.808594"/><stop stop-opacity="1" stop-color="rgb(100%, 75.779724%, 32.281494%)" offset="0.8125"/><stop stop-opacity="1" stop-color="rgb(100%, 76.527405%, 32.453918%)" offset="0.816406"/><stop stop-opacity="1" stop-color="rgb(100%, 77.276611%, 32.627869%)" offset="0.820312"/><stop stop-opacity="1" stop-color="rgb(100%, 78.024292%, 32.800293%)" offset="0.824219"/><stop stop-opacity="1" stop-color="rgb(100%, 78.771973%, 32.974243%)" offset="0.828125"/><stop stop-opacity="1" stop-color="rgb(100%, 79.519653%, 33.146667%)" offset="0.832031"/><stop stop-opacity="1" stop-color="rgb(100%, 80.26886%, 33.320618%)" offset="0.835938"/><stop stop-opacity="1" stop-color="rgb(100%, 81.016541%, 33.493042%)" offset="0.839844"/><stop stop-opacity="1" stop-color="rgb(100%, 81.765747%, 33.665466%)" offset="0.84375"/><stop stop-opacity="1" stop-color="rgb(100%, 82.513428%, 33.837891%)" offset="0.847656"/><stop stop-opacity="1" stop-color="rgb(100%, 83.261108%, 34.011841%)" offset="0.851563"/><stop stop-opacity="1" stop-color="rgb(100%, 84.008789%, 34.184265%)" offset="0.855469"/><stop stop-opacity="1" stop-color="rgb(100%, 84.757996%, 34.358215%)" offset="0.859375"/><stop stop-opacity="1" stop-color="rgb(100%, 85.505676%, 34.53064%)" offset="0.863281"/><stop stop-opacity="1" stop-color="rgb(100%, 86.253357%, 34.703064%)" offset="0.867188"/><stop stop-opacity="1" stop-color="rgb(100%, 86.676025%, 34.80072%)" offset="0.871094"/><stop stop-opacity="1" stop-color="rgb(100%, 87.098694%, 34.899902%)" offset="0.875"/><stop stop-opacity="1" stop-color="rgb(100%, 87.098694%, 34.899902%)" offset="1"/></linearGradient></defs><g clip-path="url(#4e4af35e09)"><g clip-path="url(#fa1895519c)"><path fill="url(#339bb784d9)" d="M 73.386719 52.398438 L 73.386719 399.738281 L 445.648438 399.738281 L 445.648438 52.398438 Z M 73.386719 52.398438 " fill-rule="nonzero"/></g></g><g fill="#36013f" fill-opacity="1"><g transform="translate(104.663442, 464.832794)"><g><path d="M 31.230469 -25.359375 C 31.230469 -26.199219 31.859375 -26.617188 32.277344 -27.175781 C 35.5625 -31.507812 38.773438 -35.980469 41.082031 -41.011719 C 41.917969 -42.757812 42.6875 -44.644531 42.964844 -46.597656 C 43.804688 -51 40.800781 -53.726562 36.46875 -52.679688 C 35.839844 -52.539062 35.210938 -52.257812 34.582031 -51.980469 C 33.046875 -51.28125 31.648438 -50.234375 30.390625 -49.113281 C 26.199219 -45.480469 22.984375 -41.082031 20.261719 -36.257812 C 19.910156 -35.769531 19.773438 -35.070312 19.210938 -34.722656 C 18.933594 -34.933594 19.003906 -35.210938 19.074219 -35.421875 C 19.351562 -38.773438 19.703125 -42.128906 19.980469 -45.480469 C 20.191406 -47.855469 20.46875 -50.300781 20.679688 -52.746094 C 20.75 -54.214844 20.75 -54.214844 19.144531 -54.285156 C 18.375 -54.355469 17.605469 -54.425781 16.765625 -54.425781 C 15.160156 -54.425781 15.089844 -54.425781 14.53125 -52.816406 C 13.554688 -50.371094 12.925781 -47.789062 12.503906 -45.203125 C 10.480469 -32.835938 9.921875 -20.46875 10.410156 -7.964844 C 10.480469 -6.636719 10.199219 -5.796875 8.941406 -5.101562 C 7.265625 -4.191406 5.730469 -3.003906 4.609375 -1.46875 C 2.65625 1.046875 3.214844 3.144531 6.078125 4.402344 C 7.265625 4.960938 8.59375 5.171875 9.851562 5.378906 C 10.621094 5.449219 11.316406 5.589844 11.386719 6.566406 C 11.386719 7.195312 11.875 7.476562 12.4375 7.476562 C 13.761719 7.476562 15.089844 7.476562 16.417969 7.476562 C 17.046875 7.476562 17.535156 7.195312 17.464844 6.566406 C 17.257812 5.03125 18.304688 4.75 19.492188 4.472656 C 25.710938 2.792969 31.367188 -0.140625 36.257812 -4.472656 C 39.542969 -7.335938 42.335938 -10.6875 43.945312 -14.8125 C 44.503906 -16.277344 45.410156 -16.976562 46.808594 -17.535156 C 49.464844 -18.582031 52.117188 -19.773438 54.773438 -20.960938 C 55.890625 -21.449219 55.960938 -21.867188 55.332031 -22.914062 C 54.914062 -23.753906 54.355469 -23.613281 53.65625 -23.335938 C 51.210938 -22.285156 48.695312 -21.238281 46.179688 -20.191406 C 45.410156 -19.839844 45.0625 -20.050781 44.78125 -20.820312 C 43.527344 -24.382812 40.730469 -25.851562 37.238281 -26.269531 C 35.140625 -26.480469 33.1875 -25.917969 31.230469 -25.359375 Z M 19.351562 -22.007812 C 21.796875 -30.042969 25.011719 -37.726562 30.601562 -44.15625 C 31.996094 -45.832031 33.324219 -47.507812 35.140625 -48.835938 C 35.910156 -49.394531 36.75 -50.371094 37.726562 -49.605469 C 38.566406 -48.976562 37.9375 -47.925781 37.585938 -47.089844 C 36.191406 -43.035156 34.375 -39.195312 32.066406 -35.5625 C 28.085938 -29.273438 23.472656 -23.40625 19.003906 -17.464844 C 18.863281 -17.328125 18.722656 -17.046875 18.304688 -17.046875 C 18.375 -18.792969 18.863281 -20.402344 19.351562 -22.007812 Z M 26.546875 -18.582031 C 28.363281 -20.050781 30.113281 -21.519531 32.207031 -22.566406 C 32.90625 -22.914062 33.605469 -23.195312 34.375 -23.40625 C 36.820312 -24.171875 38.636719 -22.984375 39.054688 -20.46875 C 39.125 -19.910156 39.054688 -19.28125 39.054688 -18.722656 C 39.125 -17.746094 38.636719 -17.117188 37.726562 -16.765625 C 31.648438 -14.390625 25.570312 -12.15625 19.421875 -9.992188 C 19.28125 -9.921875 19.074219 -9.992188 18.652344 -9.992188 C 21.027344 -13.203125 23.472656 -16.207031 26.546875 -18.582031 Z M 36.121094 -11.808594 C 31.859375 -5.660156 26.199219 -1.398438 19.210938 1.117188 C 17.675781 1.675781 17.535156 1.605469 17.464844 -0.0703125 C 17.464844 -1.46875 17.535156 -2.863281 17.464844 -4.191406 C 17.464844 -5.101562 17.746094 -5.730469 18.652344 -6.007812 C 19.421875 -6.289062 20.121094 -6.636719 20.820312 -6.988281 C 25.710938 -8.941406 30.53125 -10.898438 35.421875 -12.855469 C 35.839844 -12.996094 36.257812 -13.34375 36.75 -13.132812 C 36.886719 -12.574219 36.398438 -12.226562 36.121094 -11.808594 Z M 10.828125 1.605469 C 10.898438 2.027344 11.039062 2.585938 10.269531 2.585938 C 9.710938 2.585938 9.292969 2.164062 9.222656 1.605469 C 9.222656 0.699219 9.5 -0.140625 10.339844 -0.699219 C 10.96875 0.0703125 10.828125 0.910156 10.828125 1.605469 Z M 10.828125 1.605469 "/></g></g></g><g fill="#36013f" fill-opacity="1"><g transform="translate(157.968988, 464.832794)"><g><path d="M 17.117188 -19.910156 C 17.605469 -19.839844 18.023438 -19.703125 18.445312 -19.632812 C 22.496094 -18.652344 26.480469 -19.421875 30.390625 -20.402344 C 31.230469 -20.609375 31.4375 -21.027344 31.230469 -21.867188 C 31.089844 -22.636719 30.53125 -22.707031 29.902344 -22.566406 C 29.132812 -22.355469 28.363281 -22.285156 27.597656 -22.078125 C 22.707031 -20.820312 18.792969 -22.425781 15.371094 -25.851562 C 14.8125 -26.410156 14.253906 -26.96875 13.695312 -27.527344 C 12.996094 -28.296875 12.226562 -28.992188 11.386719 -29.621094 C 9.292969 -31.160156 7.683594 -31.160156 5.660156 -29.550781 C 4.402344 -28.644531 3.492188 -27.457031 2.65625 -26.199219 C -0.0703125 -22.007812 -1.46875 -17.394531 -1.886719 -12.4375 C -2.164062 -9.710938 -1.746094 -7.054688 -0.488281 -4.609375 C 0.699219 -2.304688 2.445312 -0.699219 4.960938 -0.140625 C 9.921875 1.046875 13.695312 -0.910156 15.648438 -5.589844 C 17.394531 -9.921875 18.023438 -14.320312 16.835938 -18.933594 C 16.765625 -19.144531 16.835938 -19.421875 16.765625 -19.773438 C 17.046875 -19.839844 17.046875 -19.910156 17.117188 -19.910156 Z M 9.992188 -24.453125 C 13.695312 -18.304688 14.460938 -11.875 11.316406 -5.308594 C 10.828125 -4.402344 10.339844 -3.5625 9.570312 -2.863281 C 8.664062 -2.027344 7.824219 -2.097656 7.054688 -3.144531 C 6.566406 -3.773438 6.359375 -4.472656 6.078125 -5.238281 C 5.238281 -8.242188 5.238281 -11.25 5.660156 -14.253906 C 6.078125 -17.046875 6.566406 -19.839844 7.476562 -22.496094 C 7.824219 -23.542969 8.242188 -24.59375 8.941406 -25.429688 C 9.5 -25.222656 9.78125 -24.800781 9.992188 -24.453125 Z M 9.992188 -24.453125 "/></g></g></g><g fill="#36013f" fill-opacity="1"><g transform="translate(185.844362, 464.832794)"><g><path d="M 16.558594 -16.699219 C 16.628906 -13.554688 16.976562 -10.410156 17.464844 -7.265625 C 18.09375 -2.792969 19.074219 1.535156 20.75 5.730469 C 21.308594 6.988281 21.867188 8.242188 22.777344 9.292969 C 24.941406 11.808594 29.203125 11.457031 30.878906 8.664062 C 31.789062 7.195312 32.417969 5.589844 32.835938 3.980469 C 34.652344 -2.65625 36.328125 -9.292969 38.007812 -15.929688 C 38.214844 -16.699219 38.355469 -17.328125 37.308594 -17.605469 C 35.980469 -17.886719 35.421875 -17.675781 35.070312 -16.699219 C 35.003906 -16.347656 34.933594 -16.070312 34.792969 -15.71875 C 33.046875 -9.222656 31.230469 -2.792969 29.414062 3.703125 C 29.132812 4.679688 28.785156 5.730469 28.226562 6.636719 C 28.15625 6.847656 27.945312 7.125 27.667969 7.054688 C 27.246094 7.054688 27.175781 6.707031 27.105469 6.425781 C 26.617188 4.679688 26.410156 2.933594 26.410156 1.117188 C 26.339844 -1.675781 26.410156 -4.542969 26.339844 -7.335938 C 25.988281 -20.960938 26.828125 -34.511719 27.734375 -47.996094 C 27.804688 -49.394531 27.804688 -50.792969 27.804688 -52.1875 C 27.804688 -52.957031 27.457031 -53.375 26.617188 -53.375 C 25.152344 -53.304688 23.683594 -53.304688 22.285156 -53.304688 C 21.378906 -53.304688 20.960938 -52.816406 20.679688 -52.050781 C 20.261719 -50.652344 19.773438 -49.324219 19.421875 -47.855469 C 18.375 -43.59375 17.816406 -39.195312 17.1875 -34.863281 C 16.90625 -32.976562 16.835938 -33.046875 14.949219 -32.90625 C 9.570312 -32.488281 5.101562 -30.25 2.097656 -25.570312 C 0.699219 -23.40625 -0.28125 -21.027344 -0.769531 -18.445312 C -1.328125 -15.371094 -1.535156 -12.296875 -0.347656 -9.292969 C 0.839844 -6.078125 3.421875 -4.960938 6.566406 -4.679688 C 9.5 -4.472656 11.25 -6.007812 12.503906 -8.453125 C 13.695312 -10.828125 14.53125 -13.273438 15.511719 -15.71875 C 15.71875 -16.347656 15.859375 -16.976562 16.277344 -17.464844 C 16.628906 -17.257812 16.558594 -16.976562 16.558594 -16.699219 Z M 5.796875 -9.5 C 5.03125 -14.949219 5.660156 -20.261719 8.59375 -25.082031 C 10.058594 -27.527344 12.015625 -29.34375 14.882812 -30.113281 C 15.019531 -30.113281 15.230469 -30.179688 15.441406 -30.179688 C 15.578125 -30.179688 15.71875 -30.113281 15.859375 -30.113281 C 16.140625 -29.621094 15.789062 -29.273438 15.648438 -28.855469 C 13.273438 -22.984375 10.828125 -17.1875 8.664062 -11.25 C 8.175781 -9.992188 7.683594 -8.734375 6.636719 -7.753906 C 5.9375 -8.175781 5.867188 -8.871094 5.796875 -9.5 Z M 5.796875 -9.5 "/></g></g></g><g fill="#36013f" fill-opacity="1"><g transform="translate(222.103319, 464.832794)"><g><path d="M 8.664062 -21.589844 C 9.082031 -27.386719 9.570312 -33.117188 9.921875 -38.914062 C 10.269531 -44.015625 10.621094 -49.183594 10.828125 -54.285156 C 10.96875 -56.941406 10.898438 -57.007812 8.175781 -56.941406 C 4.121094 -56.941406 4.050781 -56.941406 3.285156 -52.957031 C 1.675781 -45.203125 0.558594 -37.378906 0 -29.484375 C -0.558594 -22.496094 -0.628906 -15.511719 0.140625 -8.59375 C 0.417969 -6.359375 0.769531 -4.121094 1.328125 -1.957031 C 1.675781 -0.628906 2.585938 0 3.914062 0.0703125 C 4.472656 0.0703125 5.101562 0.0703125 5.660156 0 C 6.707031 -0.0703125 7.335938 -0.558594 7.40625 -1.746094 C 7.683594 -3.914062 8.105469 -6.007812 8.59375 -8.105469 C 10.269531 -15.578125 13.484375 -22.285156 17.605469 -28.644531 C 18.164062 -29.414062 18.722656 -30.53125 19.839844 -30.320312 C 21.097656 -29.972656 20.679688 -28.714844 20.75 -27.734375 C 20.820312 -21.867188 20.890625 -16.070312 21.027344 -10.199219 C 21.027344 -7.964844 21.167969 -5.730469 21.449219 -3.492188 C 21.796875 -1.535156 22.21875 0.417969 23.125 2.164062 C 23.683594 3.214844 24.382812 4.050781 25.570312 4.332031 C 28.085938 4.820312 30.390625 4.472656 32.207031 2.375 C 33.535156 0.769531 34.511719 -0.976562 35.421875 -2.863281 C 37.867188 -8.105469 39.753906 -13.625 41.777344 -19.003906 C 42.40625 -20.679688 42.335938 -20.679688 40.660156 -21.167969 C 39.472656 -21.449219 39.125 -20.960938 38.773438 -20.050781 C 37.097656 -16.070312 35.421875 -12.15625 33.746094 -8.242188 C 32.695312 -5.660156 31.648438 -3.144531 30.179688 -0.769531 C 29.621094 0.210938 29.132812 1.1875 28.085938 1.816406 C 27.457031 0.976562 27.316406 0.0703125 27.105469 -0.839844 C 26.617188 -3.5625 26.339844 -6.359375 26.339844 -9.082031 C 26.339844 -13.832031 26.339844 -18.582031 26.339844 -23.335938 C 26.339844 -25.710938 26.128906 -28.085938 25.359375 -30.320312 C 24.453125 -33.253906 21.867188 -34.511719 18.933594 -33.605469 C 17.605469 -33.1875 16.488281 -32.347656 15.511719 -31.367188 C 14.042969 -29.902344 12.855469 -28.226562 11.808594 -26.480469 C 10.828125 -24.871094 9.921875 -23.195312 8.941406 -21.589844 C 8.871094 -21.589844 8.734375 -21.589844 8.664062 -21.589844 Z M 8.664062 -21.589844 "/></g></g></g><g fill="#36013f" fill-opacity="1"><g transform="translate(259.270488, 464.832794)"><g><path d="M 20.539062 -20.402344 C 19.351562 -20.820312 19.210938 -20.820312 18.515625 -19.5625 C 18.445312 -19.351562 18.304688 -19.074219 18.164062 -18.863281 C 15.859375 -14.320312 13.554688 -9.851562 11.25 -5.308594 C 10.828125 -4.472656 10.410156 -3.703125 9.921875 -2.933594 C 9.222656 -1.886719 8.59375 -1.957031 7.964844 -3.003906 C 7.40625 -4.050781 7.054688 -5.238281 6.847656 -6.359375 C 6.359375 -9.363281 6.359375 -12.4375 6.21875 -15.441406 C 6.007812 -20.960938 6.566406 -26.480469 6.988281 -31.996094 C 7.195312 -34.722656 7.125 -34.792969 4.261719 -34.863281 C 4.121094 -34.863281 3.914062 -34.863281 3.703125 -34.863281 C 3.003906 -34.933594 2.585938 -34.652344 2.375 -33.953125 C 2.164062 -33.394531 1.886719 -32.90625 1.746094 -32.277344 C 0.417969 -27.105469 -0.417969 -21.867188 -0.417969 -16.140625 C -0.488281 -13.484375 -0.28125 -10.480469 0.417969 -7.476562 C 0.910156 -5.589844 1.535156 -3.84375 2.726562 -2.304688 C 5.660156 1.46875 11.738281 1.117188 14.113281 -3.003906 C 14.742188 -4.121094 15.300781 -5.378906 15.789062 -6.566406 C 17.535156 -10.550781 19.28125 -14.53125 21.027344 -18.515625 C 21.308594 -19.28125 21.65625 -19.980469 20.539062 -20.402344 Z M 5.796875 -38.566406 C 7.683594 -38.636719 8.804688 -39.683594 8.804688 -41.429688 C 8.804688 -43.105469 7.613281 -44.15625 5.589844 -44.085938 C 4.050781 -44.085938 2.792969 -42.617188 2.863281 -40.941406 C 2.863281 -39.332031 3.84375 -38.566406 5.796875 -38.566406 Z M 5.796875 -38.566406 "/></g></g></g><g fill="#36013f" fill-opacity="1"><g transform="translate(277.923937, 464.832794)"><g><path d="M 23.964844 -9.570312 C 24.035156 -10.410156 24.035156 -11.316406 24.101562 -12.15625 C 24.800781 -17.464844 25.011719 -22.914062 24.730469 -28.296875 C 24.664062 -30.179688 24.523438 -32.136719 24.101562 -33.953125 C 23.964844 -34.863281 23.542969 -35.28125 22.636719 -35.140625 C 21.238281 -34.933594 19.773438 -34.792969 18.304688 -34.582031 C 17.957031 -34.511719 17.464844 -34.441406 17.328125 -34.09375 C 16.90625 -33.1875 16.277344 -33.464844 15.648438 -33.675781 C 14.253906 -34.09375 12.785156 -34.023438 11.386719 -33.675781 C 7.195312 -32.695312 4.402344 -30.113281 2.375 -26.546875 C -0.347656 -21.726562 -1.535156 -16.488281 -1.117188 -10.96875 C -0.976562 -9.433594 -0.628906 -7.964844 0.0703125 -6.566406 C 0.488281 -5.589844 1.117188 -4.75 2.234375 -4.402344 C 4.960938 -3.632812 7.753906 -3.773438 9.363281 -6.496094 C 9.710938 -7.195312 10.199219 -7.824219 10.550781 -8.523438 C 11.597656 -10.757812 12.644531 -12.925781 13.761719 -15.160156 C 13.902344 -15.511719 13.972656 -16.070312 14.601562 -16 C 14.601562 -15.371094 14.671875 -14.8125 14.601562 -14.253906 C 14.390625 -11.386719 14.042969 -8.59375 13.832031 -5.796875 C 13.695312 -4.050781 13.066406 -3.074219 11.386719 -2.515625 C 8.734375 -1.605469 6.21875 -0.347656 3.980469 1.257812 C 1.957031 2.726562 0.28125 4.402344 -0.488281 6.917969 C -1.746094 11.039062 0.628906 14.53125 4.960938 14.949219 C 9.222656 15.300781 12.855469 13.902344 15.71875 10.757812 C 17.117188 9.292969 18.304688 7.613281 19.28125 5.796875 C 20.960938 2.585938 22.078125 -0.769531 22.84375 -4.261719 C 23.054688 -5.238281 23.542969 -6.007812 24.382812 -6.636719 C 26.828125 -8.523438 29.132812 -10.621094 31.300781 -12.855469 C 32.347656 -14.042969 33.324219 -15.300781 34.375 -16.488281 C 35.003906 -17.257812 34.582031 -17.746094 33.953125 -18.304688 C 33.253906 -18.933594 32.90625 -18.234375 32.558594 -17.816406 C 32.277344 -17.535156 32.066406 -17.1875 31.859375 -16.90625 C 29.621094 -14.042969 27.105469 -11.667969 24.382812 -9.363281 C 24.242188 -9.433594 24.101562 -9.5 23.964844 -9.570312 Z M 15.648438 -27.039062 C 14.390625 -23.335938 12.785156 -19.839844 11.109375 -16.347656 C 9.921875 -13.832031 8.734375 -11.316406 7.476562 -8.871094 C 7.125 -8.175781 6.847656 -7.125 5.9375 -7.335938 C 4.890625 -7.546875 5.101562 -8.664062 5.03125 -9.433594 C 4.820312 -11.945312 5.449219 -14.320312 5.867188 -16.699219 C 6.707031 -21.027344 7.824219 -25.289062 10.410156 -28.992188 C 11.179688 -30.042969 11.875 -31.019531 13.066406 -31.578125 C 14.8125 -32.417969 16.277344 -31.507812 16.207031 -29.273438 C 16.207031 -28.644531 15.929688 -27.875 15.648438 -27.039062 Z M 9.082031 10.828125 C 9.011719 10.898438 8.941406 10.898438 8.941406 10.96875 C 8.105469 12.015625 7.265625 13.132812 5.730469 12.785156 C 4.121094 12.503906 3.351562 11.25 2.933594 9.78125 C 2.515625 8.523438 2.792969 7.335938 3.351562 6.148438 C 3.84375 4.960938 4.679688 3.914062 5.660156 3.003906 C 7.683594 1.1875 10.058594 0 12.996094 -1.117188 C 12.226562 3.421875 11.316406 7.335938 9.082031 10.828125 Z M 9.082031 10.828125 "/></g></g></g><g fill="#36013f" fill-opacity="1"><g transform="translate(309.991102, 464.832794)"><g><path d="M 21.167969 -19.492188 C 21.167969 -19.421875 21.167969 -19.351562 21.167969 -19.351562 C 21.097656 -19.28125 21.097656 -19.28125 21.027344 -19.28125 C 21.097656 -17.394531 20.890625 -15.578125 20.75 -13.761719 C 20.46875 -9.011719 20.402344 -4.261719 21.027344 0.488281 C 21.308594 2.234375 21.726562 3.980469 22.355469 5.660156 C 23.125 7.683594 24.59375 8.804688 26.828125 8.871094 C 29.0625 8.941406 30.808594 8.3125 31.859375 6.148438 C 32.277344 5.171875 32.695312 4.191406 33.046875 3.214844 C 35.140625 -2.515625 36.75 -8.453125 38.496094 -14.320312 C 39.265625 -16.628906 39.195312 -16.628906 36.75 -16.835938 C 35.980469 -16.90625 35.492188 -16.628906 35.28125 -15.929688 C 35.003906 -15.089844 34.652344 -14.320312 34.375 -13.484375 C 32.695312 -8.242188 30.949219 -3.003906 29.203125 2.234375 C 28.925781 3.074219 28.714844 3.980469 27.945312 4.820312 C 27.597656 3.84375 27.457031 2.933594 27.457031 2.027344 C 27.386719 -0.0703125 27.316406 -2.164062 27.316406 -4.332031 C 27.386719 -12.855469 28.433594 -21.378906 28.785156 -29.902344 C 28.855469 -31.089844 28.855469 -32.277344 28.714844 -33.464844 C 28.574219 -34.375 28.085938 -34.722656 27.246094 -34.652344 C 26.339844 -34.582031 25.429688 -34.441406 24.523438 -34.511719 C 23.265625 -34.582031 22.707031 -34.023438 22.285156 -32.976562 C 20.820312 -29.273438 19.28125 -25.570312 17.816406 -21.796875 C 15.929688 -17.257812 14.183594 -12.644531 11.667969 -8.382812 C 11.25 -7.753906 10.96875 -7.054688 10.410156 -6.566406 C 9.640625 -5.796875 9.011719 -5.867188 8.59375 -6.847656 C 8.035156 -8.105469 7.824219 -9.5 7.683594 -10.898438 C 7.054688 -15.929688 7.40625 -20.960938 7.894531 -26.058594 C 8.175781 -29.414062 8.3125 -32.765625 8.453125 -36.121094 C 8.523438 -37.378906 8.382812 -37.515625 7.195312 -37.449219 C 5.589844 -37.378906 4.050781 -37.238281 2.445312 -37.097656 C 1.957031 -37.027344 1.605469 -36.75 1.535156 -36.257812 C 1.46875 -35.699219 1.328125 -35.210938 1.257812 -34.652344 C 0.347656 -27.804688 0.210938 -20.890625 0.488281 -13.972656 C 0.558594 -11.386719 0.976562 -8.734375 2.097656 -6.289062 C 2.726562 -5.101562 3.421875 -4.050781 4.679688 -3.421875 C 7.824219 -1.886719 11.945312 -2.863281 14.183594 -5.519531 C 15.230469 -6.847656 16.070312 -8.242188 16.699219 -9.78125 C 17.886719 -12.367188 19.003906 -14.949219 20.121094 -17.535156 C 20.402344 -18.09375 20.46875 -18.863281 21.027344 -19.210938 C 21.097656 -19.28125 21.097656 -19.421875 21.167969 -19.492188 Z M 21.167969 -19.492188 "/></g></g></g><g fill="#36013f" fill-opacity="1"><g transform="translate(345.481576, 464.832794)"><g><path d="M 13.414062 -33.746094 C 11.667969 -25.710938 10.828125 -17.605469 10.898438 -9.433594 C 10.898438 -5.101562 11.597656 -0.910156 13.761719 3.003906 C 14.183594 3.773438 14.671875 4.542969 15.300781 5.238281 C 17.257812 7.546875 23.195312 7.683594 25.710938 5.238281 C 27.734375 3.214844 29.34375 0.910156 30.671875 -1.605469 C 33.8125 -7.476562 35.839844 -13.832031 37.726562 -20.191406 C 37.9375 -20.960938 38.144531 -21.726562 38.285156 -22.496094 C 38.425781 -22.84375 38.496094 -23.195312 38.144531 -23.40625 C 37.378906 -23.894531 36.539062 -23.824219 35.699219 -23.824219 C 35.070312 -23.824219 34.933594 -23.125 34.792969 -22.636719 C 33.746094 -19.773438 32.625 -16.835938 31.648438 -13.902344 C 30.25 -9.640625 28.714844 -5.308594 26.410156 -1.398438 C 25.289062 0.488281 24.101562 2.304688 22.425781 3.773438 C 21.308594 4.75 20.890625 4.679688 20.402344 3.214844 C 19.5625 0.769531 19.28125 -1.816406 19.144531 -4.402344 C 18.933594 -10.550781 19.28125 -16.628906 20.191406 -22.707031 C 20.75 -26.269531 21.378906 -29.832031 21.796875 -33.464844 C 22.148438 -36.050781 21.167969 -37.097656 18.515625 -37.097656 C 16.699219 -37.097656 14.8125 -37.097656 12.996094 -37.238281 C 11.386719 -37.308594 9.78125 -37.515625 8.453125 -38.285156 C 6.917969 -39.195312 5.308594 -39.265625 3.703125 -39.472656 C 2.65625 -39.613281 2.027344 -39.332031 1.886719 -38.214844 C 1.816406 -37.65625 1.675781 -37.167969 1.605469 -36.679688 C 1.398438 -33.464844 1.046875 -30.25 0.839844 -26.96875 C 0.488281 -20.121094 -0.210938 -13.34375 -1.328125 -6.566406 C -1.675781 -4.820312 -1.957031 -3.074219 -1.957031 -1.328125 C -1.957031 -0.839844 -2.027344 -0.417969 -1.46875 -0.140625 C 0.417969 0.628906 1.535156 0.0703125 2.027344 -1.816406 C 2.027344 -2.027344 2.097656 -2.234375 2.097656 -2.445312 C 4.121094 -11.527344 5.589844 -20.679688 6.148438 -29.972656 C 6.289062 -31.929688 6.496094 -33.882812 6.636719 -36.050781 C 8.941406 -35.421875 11.179688 -35.351562 13.484375 -35.070312 C 13.695312 -34.441406 13.484375 -34.09375 13.414062 -33.746094 Z M 13.414062 -33.746094 "/></g></g></g><g fill="#36013f" fill-opacity="1"><g transform="translate(378.876142, 464.832794)"><g><path d="M 21.167969 -19.492188 C 21.167969 -19.421875 21.167969 -19.351562 21.167969 -19.351562 C 21.097656 -19.28125 21.097656 -19.28125 21.027344 -19.28125 C 21.097656 -17.394531 20.890625 -15.578125 20.75 -13.761719 C 20.46875 -9.011719 20.402344 -4.261719 21.027344 0.488281 C 21.308594 2.234375 21.726562 3.980469 22.355469 5.660156 C 23.125 7.683594 24.59375 8.804688 26.828125 8.871094 C 29.0625 8.941406 30.808594 8.3125 31.859375 6.148438 C 32.277344 5.171875 32.695312 4.191406 33.046875 3.214844 C 35.140625 -2.515625 36.75 -8.453125 38.496094 -14.320312 C 39.265625 -16.628906 39.195312 -16.628906 36.75 -16.835938 C 35.980469 -16.90625 35.492188 -16.628906 35.28125 -15.929688 C 35.003906 -15.089844 34.652344 -14.320312 34.375 -13.484375 C 32.695312 -8.242188 30.949219 -3.003906 29.203125 2.234375 C 28.925781 3.074219 28.714844 3.980469 27.945312 4.820312 C 27.597656 3.84375 27.457031 2.933594 27.457031 2.027344 C 27.386719 -0.0703125 27.316406 -2.164062 27.316406 -4.332031 C 27.386719 -12.855469 28.433594 -21.378906 28.785156 -29.902344 C 28.855469 -31.089844 28.855469 -32.277344 28.714844 -33.464844 C 28.574219 -34.375 28.085938 -34.722656 27.246094 -34.652344 C 26.339844 -34.582031 25.429688 -34.441406 24.523438 -34.511719 C 23.265625 -34.582031 22.707031 -34.023438 22.285156 -32.976562 C 20.820312 -29.273438 19.28125 -25.570312 17.816406 -21.796875 C 15.929688 -17.257812 14.183594 -12.644531 11.667969 -8.382812 C 11.25 -7.753906 10.96875 -7.054688 10.410156 -6.566406 C 9.640625 -5.796875 9.011719 -5.867188 8.59375 -6.847656 C 8.035156 -8.105469 7.824219 -9.5 7.683594 -10.898438 C 7.054688 -15.929688 7.40625 -20.960938 7.894531 -26.058594 C 8.175781 -29.414062 8.3125 -32.765625 8.453125 -36.121094 C 8.523438 -37.378906 8.382812 -37.515625 7.195312 -37.449219 C 5.589844 -37.378906 4.050781 -37.238281 2.445312 -37.097656 C 1.957031 -37.027344 1.605469 -36.75 1.535156 -36.257812 C 1.46875 -35.699219 1.328125 -35.210938 1.257812 -34.652344 C 0.347656 -27.804688 0.210938 -20.890625 0.488281 -13.972656 C 0.558594 -11.386719 0.976562 -8.734375 2.097656 -6.289062 C 2.726562 -5.101562 3.421875 -4.050781 4.679688 -3.421875 C 7.824219 -1.886719 11.945312 -2.863281 14.183594 -5.519531 C 15.230469 -6.847656 16.070312 -8.242188 16.699219 -9.78125 C 17.886719 -12.367188 19.003906 -14.949219 20.121094 -17.535156 C 20.402344 -18.09375 20.46875 -18.863281 21.027344 -19.210938 C 21.097656 -19.28125 21.097656 -19.421875 21.167969 -19.492188 Z M 21.167969 -19.492188 "/></g></g></g></svg>