<svg width="28" height="26" viewBox="0 0 28 26" fill="none" xmlns="http://www.w3.org/2000/svg">
<path id="Vector" d="M9.85189 2.35718C10.6943 2.35718 11.5178 2.61318 12.2182 3.09283C12.9186 3.57247 13.4646 4.2542 13.7869 5.05181C14.1093 5.84943 14.1937 6.7271 14.0293 7.57384C13.865 8.42058 13.4593 9.19837 12.8636 9.80883C12.268 10.4193 11.509 10.835 10.6828 11.0035C9.85662 11.1719 9.00022 11.0854 8.22194 10.7551C7.44367 10.4247 6.77846 9.8652 6.31045 9.14736C5.84243 8.42953 5.59263 7.58559 5.59263 6.72226C5.59263 5.56457 6.04138 4.45429 6.84014 3.63568C7.63891 2.81707 8.72227 2.35718 9.85189 2.35718ZM9.85189 0.611145C8.67253 0.611145 7.51965 0.969555 6.53905 1.64105C5.55844 2.31255 4.79416 3.26698 4.34283 4.38364C3.89151 5.50029 3.77342 6.72904 4.00351 7.91447C4.23359 9.09991 4.80151 10.1888 5.63544 11.0435C6.46938 11.8981 7.53187 12.4801 8.68858 12.7159C9.84528 12.9517 11.0442 12.8307 12.1338 12.3682C13.2234 11.9057 14.1547 11.1224 14.8099 10.1174C15.4651 9.11244 15.8149 7.93092 15.8149 6.72226C15.8149 5.10149 15.1866 3.5471 14.0683 2.40105C12.9501 1.25499 11.4334 0.611145 9.85189 0.611145ZM18.3704 25.0556H16.6667V20.6905C16.6667 19.5328 16.218 18.4225 15.4192 17.6039C14.6204 16.7853 13.5371 16.3254 12.4074 16.3254H7.29634C6.16671 16.3254 5.08335 16.7853 4.28459 17.6039C3.48582 18.4225 3.03708 19.5328 3.03708 20.6905V25.0556H1.33337V20.6905C1.33337 19.0697 1.96161 17.5154 3.07989 16.3693C4.19816 15.2232 5.71486 14.5794 7.29634 14.5794H12.4074C13.9889 14.5794 15.5056 15.2232 16.6239 16.3693C17.7422 17.5154 18.3704 19.0697 18.3704 20.6905V25.0556ZM20.926 12.9905L18.7197 10.7294L17.5186 11.9604L20.926 15.4524L26.8889 9.3413L25.6878 8.11035L20.926 12.9905Z" fill="white" stroke="white" stroke-width="0.777778"/>
</svg>
