<svg width="19" height="24" viewBox="0 0 19 24" fill="none" xmlns="http://www.w3.org/2000/svg">
<path id="Vector" d="M1.88183 6.96114C1.53198 4.68359 3.15666 2.63778 5.63855 1.88825C6.07898 1.75515 6.55419 1.79304 6.96734 1.9942C7.38049 2.19536 7.70051 2.54465 7.86218 2.9709L8.65895 5.07103C8.78722 5.40888 8.81041 5.77692 8.72555 6.12789C8.6407 6.47887 8.45167 6.79677 8.18272 7.0408L5.81256 9.18619C5.69573 9.29216 5.60868 9.42625 5.55988 9.57537C5.51109 9.7245 5.50222 9.88358 5.53415 10.0371L5.55613 10.1312L5.61291 10.3666C5.90767 11.5102 6.35679 12.6093 6.94819 13.6345C7.5924 14.7238 8.39187 15.7159 9.32201 16.5801L9.39528 16.6453C9.5136 16.7491 9.65712 16.8208 9.81184 16.8535C9.96656 16.8862 10.1272 16.8787 10.2781 16.8317L13.3425 15.8776C13.6907 15.7695 14.0637 15.7668 14.4136 15.8697C14.7634 15.9726 15.0742 16.1765 15.306 16.4552L16.7567 18.195C17.3611 18.9192 17.2879 19.9837 16.5937 20.6228C14.6943 22.3735 12.0823 22.732 10.2653 21.2891C8.03807 19.5133 6.16049 17.3475 4.72639 14.9C3.28065 12.4543 2.31678 9.76088 1.88183 6.96114ZM7.45555 10.1566L9.41909 8.37511C9.95729 7.88726 10.3357 7.25154 10.5057 6.54958C10.6758 5.84762 10.6297 5.11144 10.3734 4.43556L9.57844 2.33543C9.25304 1.47773 8.60901 0.774933 7.77759 0.370258C6.94617 -0.0344173 5.98992 -0.110519 5.10371 0.157459C2.02104 1.08984 -0.453528 3.82182 0.0703246 7.23452C0.436655 9.61708 1.28105 12.6478 3.14384 15.8125C4.69106 18.4515 6.7164 20.7867 9.1187 22.7012C11.8442 24.8647 15.4819 24.1261 17.8447 21.9499C18.5208 21.3277 18.9312 20.4739 18.9921 19.5628C19.053 18.6517 18.7599 17.7519 18.1726 17.0472L16.7219 15.3055C16.2578 14.7488 15.6361 14.3417 14.9364 14.1366C14.2367 13.9314 13.491 13.9375 12.7948 14.1541L10.2507 14.9452C9.59377 14.2758 9.01839 13.5327 8.53623 12.7311C8.07048 11.9206 7.70752 11.0566 7.45555 10.1584V10.1566Z" fill="white"/>
</svg>
