<svg width="23" height="21" viewBox="0 0 23 21" fill="none" xmlns="http://www.w3.org/2000/svg">
<path id="Vector" d="M19.3333 20.8334C18.6111 20.8334 17.963 20.6249 17.3889 20.2078C16.8148 19.7908 16.4167 19.2586 16.1945 18.6112H10.4445C9.22224 18.6112 8.17594 18.176 7.30557 17.3056C6.4352 16.4352 6.00001 15.3889 6.00001 14.1667C6.00001 12.9445 6.4352 11.8982 7.30557 11.0278C8.17594 10.1574 9.22224 9.72226 10.4445 9.72226H12.6667C13.2778 9.72226 13.8011 9.50449 14.2367 9.06893C14.6722 8.63337 14.8896 8.11041 14.8889 7.50004C14.8889 6.88893 14.6711 6.3656 14.2356 5.93004C13.8 5.49449 13.2771 5.27708 12.6667 5.27782H6.91668C6.67594 5.92597 6.27298 6.45856 5.70779 6.8756C5.14261 7.29263 4.49927 7.50078 3.77779 7.50004C2.85187 7.50004 2.06483 7.17597 1.41668 6.52782C0.768532 5.87967 0.444458 5.09263 0.444458 4.16671C0.444458 3.24078 0.768532 2.45374 1.41668 1.8056C2.06483 1.15745 2.85187 0.833374 3.77779 0.833374C4.50001 0.833374 5.14372 1.04189 5.7089 1.45893C6.27409 1.87597 6.67631 2.40819 6.91557 3.0556H12.6667C13.8889 3.0556 14.9352 3.49078 15.8056 4.36115C16.6759 5.23152 17.1111 6.27782 17.1111 7.50004C17.1111 8.72226 16.6759 9.76856 15.8056 10.6389C14.9352 11.5093 13.8889 11.9445 12.6667 11.9445H10.4445C9.83335 11.9445 9.31001 12.1623 8.87446 12.5978C8.4389 13.0334 8.22149 13.5563 8.22224 14.1667C8.22224 14.7778 8.44001 15.3012 8.87557 15.7367C9.31112 16.1723 9.83409 16.3897 10.4445 16.3889H16.1945C16.4352 15.7408 16.8382 15.2082 17.4033 14.7912C17.9685 14.3741 18.6119 14.166 19.3333 14.1667C20.2593 14.1667 21.0463 14.4908 21.6945 15.1389C22.3426 15.7871 22.6667 16.5741 22.6667 17.5C22.6667 18.426 22.3426 19.213 21.6945 19.8612C21.0463 20.5093 20.2593 20.8334 19.3333 20.8334ZM3.77779 5.27782C4.09261 5.27782 4.35668 5.17115 4.57001 4.95782C4.78335 4.74449 4.88964 4.48078 4.8889 4.16671C4.8889 3.85189 4.78224 3.58782 4.5689 3.37449C4.35557 3.16115 4.09187 3.05486 3.77779 3.0556C3.46298 3.0556 3.1989 3.16226 2.98557 3.3756C2.77224 3.58893 2.66594 3.85263 2.66668 4.16671C2.66668 4.48152 2.77335 4.7456 2.98668 4.95893C3.20001 5.17226 3.46372 5.27856 3.77779 5.27782Z" fill="white"/>
</svg>
