<svg width="23" height="26" viewBox="0 0 23 26" fill="none" xmlns="http://www.w3.org/2000/svg">
<g id="Group">
<path id="Vector" d="M5.69978 24V20.8574C5.37199 17.5828 1.50012 15.8295 1.50012 10.8004C1.50012 5.77361 4.49972 1.93913 10.5 2.00073C14.8196 2.04693 18.8993 4.51525 18.8993 9.54428L21.2995 13.315C21.2995 15.8295 18.8993 15.8295 18.8993 15.8295C18.8993 15.8295 19.4999 22.1147 14.0991 22.1147V24" stroke="white" stroke-width="2.39997" stroke-linecap="round" stroke-linejoin="round"/>
<path id="Vector_2" d="M10.4114 9.20167C10.1397 9.20167 9.88533 9.30149 9.69271 9.48394C9.501 9.66638 9.39469 9.90735 9.39469 10.1647C9.39469 10.422 9.501 10.6629 9.69271 10.8454C9.88533 11.027 10.1397 11.1277 10.4114 11.1277C10.6831 11.1277 10.9375 11.027 11.1301 10.8454C11.3218 10.6629 11.4281 10.422 11.4281 10.1647C11.4281 9.90735 11.3218 9.66638 11.1301 9.48394C11.036 9.39414 10.9241 9.32295 10.8007 9.27449C10.6773 9.22603 10.545 9.20128 10.4114 9.20167ZM14.1576 11.2283L13.5634 10.7473C13.5915 10.5838 13.6061 10.4168 13.6061 10.2507C13.6061 10.0846 13.5915 9.91681 13.5634 9.75416L14.1576 9.27309C14.2025 9.2367 14.2346 9.18822 14.2497 9.13411C14.2648 9.08 14.2621 9.02282 14.2421 8.97017L14.2339 8.94779C14.0704 8.51465 13.8253 8.11316 13.5107 7.76276L13.4943 7.74469C13.4561 7.70214 13.4052 7.67155 13.3482 7.65695C13.2913 7.64236 13.231 7.64444 13.1754 7.66294L12.4376 7.91165C12.165 7.69994 11.8615 7.53299 11.5326 7.41681L11.39 6.68617C11.3792 6.63113 11.351 6.58049 11.3092 6.54099C11.2673 6.50148 11.2137 6.47498 11.1556 6.465L11.131 6.4607C10.6586 6.3798 10.1606 6.3798 9.68817 6.4607L9.66364 6.465C9.60548 6.47498 9.55191 6.50148 9.51004 6.54099C9.46817 6.58049 9.43998 6.63113 9.42922 6.68617L9.28566 7.42025C8.95986 7.53736 8.65636 7.70391 8.38705 7.91337L7.64382 7.66294C7.58818 7.6443 7.52787 7.64214 7.47091 7.65674C7.41394 7.67134 7.36301 7.70202 7.3249 7.74469L7.30854 7.76276C6.99443 8.11353 6.74945 8.51492 6.5853 8.94779L6.57712 8.97017C6.53623 9.07774 6.56985 9.19822 6.66162 9.27309L7.26311 9.75933C7.23495 9.92112 7.22132 10.0864 7.22132 10.2499C7.22132 10.4151 7.23495 10.5803 7.26311 10.7404L6.66344 11.2266C6.61855 11.263 6.58642 11.3115 6.57133 11.3656C6.55623 11.4197 6.55889 11.4769 6.57894 11.5296L6.58711 11.5519C6.75157 11.9848 6.99417 12.385 7.31036 12.737L7.32671 12.755C7.36493 12.7976 7.41585 12.8282 7.47278 12.8428C7.52971 12.8574 7.58998 12.8553 7.64563 12.8368L8.38887 12.5864C8.65963 12.7972 8.96129 12.9642 9.28748 13.0795L9.43103 13.8136C9.4418 13.8686 9.46999 13.9192 9.51186 13.9587C9.55373 13.9982 9.6073 14.0247 9.66545 14.0347L9.68999 14.039C10.1671 14.1204 10.6557 14.1204 11.1328 14.039L11.1574 14.0347C11.2155 14.0247 11.2691 13.9982 11.311 13.9587C11.3528 13.9192 11.381 13.8686 11.3918 13.8136L11.5344 13.0829C11.8634 12.9659 12.1668 12.7998 12.4394 12.5881L13.1772 12.8368C13.2328 12.8554 13.2931 12.8576 13.3501 12.843C13.4071 12.8284 13.458 12.7977 13.4961 12.755L13.5125 12.737C13.8287 12.3833 14.0713 11.9848 14.2357 11.5519L14.2439 11.5296C14.283 11.4228 14.2493 11.3032 14.1576 11.2283ZM10.4114 11.6776C9.52916 11.6776 8.81409 11.0003 8.81409 10.1647C8.81409 9.32903 9.52916 8.65175 10.4114 8.65175C11.2937 8.65175 12.0087 9.32903 12.0087 10.1647C12.0087 11.0003 11.2937 11.6776 10.4114 11.6776Z" fill="white"/>
</g>
</svg>
