<svg width="168" height="61" viewBox="0 0 168 61" fill="none" xmlns="http://www.w3.org/2000/svg">
<g id="Logo" clip-path="url(#clip0_507_1551)">
<path id="Vector" d="M64.5259 9.84521H68.903V25.8647H77.0124V29.9549H64.5198L64.5259 9.84521Z" fill="#DA2129"/>
<path id="Vector_2" d="M90.6899 27.5697C90.0128 28.4426 89.135 29.1345 88.133 29.5853C87.1304 30.0541 86.0391 30.2968 84.9347 30.2966C83.9252 30.3031 82.9226 30.1296 81.9726 29.7841C81.0785 29.4655 80.257 28.9681 79.557 28.3213C78.8688 27.6802 78.3191 26.9019 77.9425 26.0355C77.5537 25.0901 77.3535 24.0763 77.3535 23.0524C77.3535 22.0285 77.5537 21.0147 77.9425 20.0693C78.3199 19.2033 78.8695 18.4252 79.557 17.7835C80.2587 17.1391 81.0798 16.6419 81.9726 16.3207C82.9226 15.9752 83.9252 15.8017 84.9347 15.8082C85.8438 15.7957 86.746 15.9701 87.5867 16.3207C88.3609 16.6469 89.0516 17.1471 89.6064 17.7835C90.1781 18.4523 90.6132 19.2293 90.8863 20.0693C91.1958 21.0328 91.3471 22.041 91.3344 23.054V24.3894H81.5644C81.6999 25.145 82.0865 25.831 82.6602 26.3336C83.2417 26.8245 83.9813 27.0821 84.7382 27.0573C85.3552 27.0783 85.9648 26.9152 86.4909 26.5883C86.9774 26.2683 87.401 25.8597 87.7401 25.3833L90.6899 27.5697ZM87.1232 21.4918C87.1386 21.1513 87.0841 20.8113 86.9631 20.4933C86.8421 20.1752 86.6573 19.886 86.4203 19.6438C86.1776 19.3902 85.885 19.1909 85.5614 19.0587C85.2379 18.9266 84.8905 18.8646 84.5418 18.8767C84.1218 18.8703 83.7047 18.9473 83.314 19.1034C82.9755 19.2417 82.6638 19.4394 82.3932 19.6873C82.1443 19.919 81.9438 20.1989 81.8038 20.5104C81.6636 20.8193 81.5824 21.1523 81.5644 21.4918H87.1232Z" fill="#DA2129"/>
<path id="Vector_3" d="M101.329 28.222H101.261C100.819 28.9381 100.165 29.4946 99.3917 29.8122C98.6126 30.1355 97.7782 30.3002 96.9361 30.2967C96.3124 30.2989 95.6918 30.2078 95.0945 30.0265C94.5288 29.8584 93.9997 29.5833 93.5352 29.2159C93.0859 28.8569 92.722 28.4005 92.4701 27.8804C92.1969 27.3055 92.0623 26.6733 92.0772 26.0356C92.0551 25.3375 92.2049 24.6449 92.5131 24.0199C92.7951 23.4784 93.1988 23.0114 93.6917 22.6565C94.2088 22.2855 94.7821 22.0023 95.3891 21.818C96.0362 21.6171 96.6983 21.4696 97.3689 21.3769C98.0489 21.2829 98.7333 21.2259 99.4193 21.2061C100.101 21.1875 100.732 21.1782 101.313 21.1782C101.327 20.8352 101.262 20.4937 101.122 20.1806C100.983 19.8674 100.775 19.5913 100.512 19.3737C99.9799 18.9294 99.308 18.6926 98.6182 18.706C97.9612 18.6983 97.3119 18.8495 96.7243 19.147C96.1414 19.4472 95.6205 19.8573 95.1896 20.3552L92.9428 18.0258C93.7386 17.2826 94.6797 16.7165 95.7053 16.3643C96.7521 15.9943 97.8532 15.8063 98.962 15.8083C99.9966 15.7769 101.028 15.9358 102.007 16.2773C102.754 16.5562 103.413 17.0324 103.916 17.6563C104.415 18.311 104.757 19.0745 104.914 19.8862C105.111 20.8913 105.204 21.9145 105.193 22.9391V29.955H101.329V28.222ZM100.288 23.905C99.981 23.905 99.5728 23.9206 99.097 23.9485C98.6309 23.9743 98.1693 24.0556 97.7219 24.1908C97.3094 24.3055 96.9262 24.5089 96.5985 24.7871C96.4419 24.9244 96.3186 25.0965 96.2382 25.2898C96.1578 25.4832 96.1225 25.6926 96.135 25.902C96.1241 26.134 96.179 26.3642 96.2932 26.5656C96.4075 26.767 96.5762 26.9312 96.7796 27.0387C97.1892 27.2789 97.6537 27.4063 98.1271 27.4083C98.5311 27.4099 98.9333 27.3524 99.3211 27.2375C99.6862 27.1337 100.032 26.9712 100.346 26.7561C100.642 26.55 100.886 26.278 101.061 25.961C101.246 25.6118 101.338 25.2202 101.329 24.8243V23.9143L100.288 23.905Z" fill="#DA2129"/>
<path id="Vector_4" d="M106.719 16.1499H110.93V18.3674H110.985C111.356 17.6054 111.905 16.9466 112.584 16.448C113.278 15.9998 114.091 15.7766 114.914 15.8082C115.159 15.8082 115.402 15.8082 115.644 15.8393C115.872 15.8553 116.099 15.8927 116.32 15.9511V19.8426C116.03 19.7516 115.735 19.6811 115.436 19.6314C115.131 19.5815 114.823 19.5576 114.515 19.56C113.862 19.531 113.21 19.6465 112.606 19.8985C112.164 20.1066 111.789 20.4372 111.525 20.852C111.26 21.2986 111.093 21.7974 111.034 22.3148C110.958 22.9329 110.921 23.5553 110.924 24.1782V29.9425H106.719V16.1499Z" fill="#DA2129"/>
<path id="Vector_5" d="M117.529 16.1499H121.572V18.0134H121.627C121.776 17.7231 121.966 17.4555 122.188 17.2183C122.445 16.941 122.738 16.7015 123.06 16.5071C123.421 16.2874 123.808 16.1152 124.211 15.9946C124.667 15.8594 125.139 15.7924 125.614 15.7959C126.501 15.7597 127.384 15.9309 128.195 16.2959C128.825 16.5996 129.356 17.0764 129.73 17.6717C130.111 18.3065 130.364 19.0118 130.473 19.7464C130.609 20.6007 130.675 21.465 130.669 22.3304V29.9426H126.452V23.1938C126.452 22.7962 126.452 22.3863 126.412 21.9515C126.387 21.5472 126.301 21.1491 126.157 20.7713C126.025 20.4239 125.802 20.1192 125.513 19.8893C125.144 19.6403 124.705 19.5213 124.263 19.5507C123.804 19.5345 123.349 19.6417 122.944 19.8613C122.617 20.047 122.35 20.3228 122.173 20.6564C121.989 21.0051 121.869 21.3851 121.82 21.7775C121.764 22.211 121.736 22.6478 121.737 23.0851V29.9581H117.529V16.1499Z" fill="#DA2129"/>
<path id="Vector_6" d="M132.235 11.805C132.233 11.2296 132.429 10.6714 132.789 10.2258C133.148 9.78019 133.65 9.47471 134.207 9.36153C134.765 9.24835 135.344 9.33448 135.846 9.60522C136.348 9.87596 136.741 10.3145 136.959 10.846C137.177 11.3776 137.205 11.9691 137.04 12.5196C136.875 13.0702 136.526 13.5456 136.053 13.8648C135.579 14.184 135.011 14.3272 134.446 14.2698C133.88 14.2125 133.351 13.9582 132.95 13.5504C132.72 13.324 132.538 13.0524 132.415 12.7523C132.292 12.4522 132.23 12.1298 132.235 11.805ZM132.572 16.153H136.784V29.958H132.569L132.572 16.153Z" fill="#DA2129"/>
<path id="Vector_7" d="M138.708 16.1499H142.751V18.0134H142.806C142.956 17.7231 143.145 17.4555 143.368 17.2183C143.624 16.941 143.917 16.7015 144.239 16.5071C144.6 16.2874 144.987 16.1152 145.39 15.9946C145.846 15.8594 146.319 15.7924 146.793 15.7959C147.68 15.7597 148.563 15.9309 149.375 16.2959C150.004 16.5996 150.536 17.0764 150.909 17.6717C151.291 18.3065 151.543 19.0118 151.652 19.7464C151.788 20.6007 151.854 21.465 151.849 22.3304V29.9426H147.61V23.1938C147.61 22.7962 147.61 22.3863 147.57 21.9515C147.545 21.5472 147.459 21.1491 147.315 20.7713C147.182 20.4239 146.96 20.1192 146.67 19.8893C146.302 19.6403 145.863 19.5213 145.421 19.5507C144.962 19.5345 144.506 19.6417 144.101 19.8613C143.775 20.047 143.508 20.3228 143.331 20.6564C143.146 21.0051 143.027 21.3851 142.978 21.7775C142.922 22.211 142.894 22.6478 142.895 23.0851V29.9581H138.708V16.1499Z" fill="#DA2129"/>
<path id="Vector_8" d="M168 28.7903C168 31.4053 167.35 33.3888 166.051 34.7409C164.751 36.0929 162.772 36.77 160.111 36.772C158.903 36.7728 157.698 36.6353 156.52 36.3621C155.329 36.0812 154.216 35.5324 153.264 34.7564L155.59 31.2345C156.214 31.7652 156.908 32.2043 157.653 32.5389C158.401 32.8677 159.21 33.0328 160.026 33.0234C161.315 33.0234 162.264 32.7066 162.874 32.073C163.18 31.7508 163.419 31.3699 163.577 30.9528C163.735 30.5357 163.809 30.0908 163.795 29.6443V28.3089H163.74C163.285 28.9461 162.655 29.4342 161.929 29.7127C161.279 29.9748 160.587 30.1147 159.887 30.1257C158.941 30.1411 158.001 29.9626 157.125 29.6009C156.322 29.2665 155.599 28.7625 155.004 28.1225C154.403 27.4717 153.94 26.7033 153.644 25.8647C153.021 24.0752 153.006 22.1263 153.601 20.3271C153.87 19.4913 154.286 18.7116 154.829 18.0257C155.364 17.3608 156.028 16.8142 156.781 16.4201C157.588 15.999 158.485 15.7856 159.393 15.7989C160.427 15.7862 161.449 16.0304 162.368 16.5101C162.732 16.6984 163.071 16.9321 163.377 17.2058C163.631 17.43 163.857 17.6832 164.053 17.9605H164.108V16.1499H167.982L168 28.7903ZM157.389 22.967C157.387 23.4079 157.471 23.8448 157.638 24.2522C157.804 24.6596 158.049 25.0294 158.359 25.3398C158.667 25.6527 159.027 25.9072 159.424 26.0914C159.841 26.2798 160.293 26.3772 160.75 26.3772C161.207 26.3772 161.659 26.2798 162.076 26.0914C162.478 25.9098 162.845 25.6551 163.156 25.3398C163.465 25.0292 163.711 24.6597 163.878 24.2528C164.046 23.8458 164.132 23.4094 164.132 22.9685C164.132 22.5277 164.046 22.0913 163.878 21.6843C163.711 21.2773 163.465 20.9079 163.156 20.5973C162.845 20.2811 162.479 20.0253 162.076 19.8426C161.658 19.6563 161.206 19.56 160.75 19.56C160.293 19.56 159.842 19.6563 159.424 19.8426C159.027 20.0279 158.667 20.2835 158.359 20.5973C158.049 20.907 157.804 21.2761 157.637 21.683C157.471 22.09 157.386 22.5265 157.389 22.967Z" fill="#DA2129"/>
<path id="Vector_9" d="M64.5259 34.2408H68.903V50.2603H77.0124V54.3506H64.5198L64.5259 34.2408Z" fill="#6E6E6E"/>
<path id="Vector_10" d="M90.6898 51.9655C90.0128 52.8383 89.135 53.5303 88.133 53.9811C87.1298 54.4483 86.0389 54.6909 84.9346 54.6923C83.9252 54.6988 82.9225 54.5254 81.9726 54.1799C81.0797 53.8587 80.2586 53.3615 79.5569 52.7171C78.8668 52.078 78.314 51.302 77.9332 50.4374C77.5444 49.4921 77.3442 48.4783 77.3442 47.4544C77.3442 46.4305 77.5444 45.4166 77.9332 44.4713C78.3106 43.6053 78.8602 42.8272 79.5477 42.1855C80.2494 41.5411 81.0705 41.0439 81.9634 40.7227C82.9133 40.3772 83.916 40.2037 84.9254 40.2102C85.8346 40.1977 86.7368 40.3721 87.5774 40.7227C88.3516 41.0489 89.0423 41.5491 89.5971 42.1855C90.1689 42.8543 90.6039 43.6313 90.877 44.4713C91.1862 45.4338 91.3376 46.4409 91.3252 47.4528V48.7883H81.5644C81.6998 49.5447 82.0864 50.2317 82.6601 50.7356C83.2424 51.2252 83.9814 51.4826 84.7381 51.4592C85.3552 51.4803 85.9647 51.3172 86.4908 50.9903C86.9781 50.67 87.4019 50.2602 87.7401 49.7821L90.6898 51.9655ZM87.1231 45.8844C87.1381 45.5445 87.0834 45.2051 86.9624 44.8876C86.8414 44.5701 86.6568 44.2814 86.4202 44.0396C86.178 43.7853 85.8855 43.5856 85.5618 43.4534C85.2381 43.3212 84.8905 43.2596 84.5417 43.2725C84.1216 43.2646 83.7042 43.3417 83.3139 43.4992C82.9754 43.6375 82.6637 43.8352 82.3931 44.0831C82.1442 44.3148 81.9438 44.5946 81.8038 44.9061C81.6639 45.2141 81.5827 45.546 81.5644 45.8844H87.1231Z" fill="#6E6E6E"/>
<path id="Vector_11" d="M92.7648 40.5456H96.8072V42.409H96.8655C97.013 42.1173 97.2011 41.8484 97.4242 41.6109C97.6819 41.3362 97.9751 41.098 98.2959 40.9028C98.657 40.6842 99.0437 40.512 99.447 40.3903C99.9025 40.2553 100.375 40.1883 100.85 40.1915C101.737 40.1559 102.621 40.3258 103.434 40.6885C104.062 40.9948 104.594 41.4723 104.969 42.0674C105.352 42.7017 105.605 43.4071 105.715 44.1421C105.849 44.9966 105.915 45.8607 105.911 46.726V54.3506H101.694V47.5894C101.694 47.1919 101.694 46.7819 101.651 46.3471C101.627 45.9441 101.542 45.5471 101.399 45.1701C101.265 44.7802 101.004 44.4475 100.66 44.2255C100.316 44.0035 99.9083 43.9052 99.5022 43.9464C99.0429 43.9302 98.5875 44.0373 98.1823 44.257C97.8576 44.4446 97.5909 44.7199 97.4119 45.052C97.2281 45.4008 97.1094 45.7809 97.062 46.1732C97.0031 46.6065 96.9743 47.0434 96.976 47.4807V54.3506H92.7648V40.5456Z" fill="#6E6E6E"/>
<path id="Vector_12" d="M115.476 44.6079C115.188 44.233 114.817 43.9322 114.393 43.7298C113.969 43.5274 113.504 43.4292 113.035 43.4432C112.674 43.4441 112.317 43.5313 111.995 43.6979C111.833 43.7767 111.698 43.903 111.609 44.0603C111.519 44.2177 111.478 44.3987 111.491 44.5799C111.49 44.7442 111.539 44.9047 111.632 45.0394C111.725 45.174 111.857 45.2761 112.01 45.3315C112.434 45.519 112.877 45.6616 113.33 45.757L115.043 46.1545C115.641 46.294 116.217 46.5188 116.752 46.8223C117.283 47.1254 117.735 47.551 118.072 48.0646C118.448 48.6921 118.63 49.4189 118.594 50.1516C118.625 50.9276 118.424 51.6949 118.017 52.3536C117.639 52.9267 117.135 53.4031 116.544 53.745C115.915 54.1027 115.231 54.3495 114.521 54.4748C113.791 54.616 113.049 54.6877 112.305 54.6891C111.327 54.6848 110.354 54.5458 109.413 54.2761C108.48 54.0209 107.631 53.5155 106.958 52.8132L109.512 49.9435C109.867 50.4036 110.311 50.7861 110.816 51.0678C111.334 51.332 111.909 51.4632 112.489 51.4498C112.938 51.4557 113.384 51.3832 113.809 51.2355C113.98 51.1931 114.132 51.0926 114.239 50.9508C114.347 50.8091 114.403 50.6344 114.398 50.456C114.401 50.2837 114.352 50.1145 114.26 49.9701C114.167 49.8258 114.033 49.7127 113.876 49.6454C113.457 49.4405 113.015 49.2882 112.56 49.1919L110.847 48.7944C110.251 48.658 109.675 48.4429 109.134 48.1546C108.6 47.8712 108.146 47.4556 107.814 46.9465C107.439 46.3189 107.258 45.5919 107.296 44.8594C107.275 44.1272 107.445 43.4024 107.787 42.7568C108.103 42.1819 108.543 41.6871 109.076 41.3096C109.635 40.9196 110.259 40.6355 110.917 40.471C111.605 40.2917 112.313 40.2009 113.023 40.2008C113.946 40.2047 114.863 40.3385 115.749 40.5983C116.639 40.8493 117.444 41.3411 118.078 42.0208L115.476 44.6079Z" fill="#6E6E6E"/>
<path id="Vector_13" d="M52.6503 32.1135C52.6012 44.0489 43.178 53.4593 31.3237 53.4096C19.7489 53.363 10.4515 43.7165 10.519 31.806C10.5743 20.175 20.1203 10.6683 31.6829 10.7335C37.2622 10.7655 42.6016 13.0336 46.5316 17.0409C50.4615 21.0482 52.6617 26.4681 52.6503 32.1135ZM50.827 32.1135C50.7813 26.987 48.7407 22.0854 45.1475 18.4709C41.5544 14.8564 36.6982 12.8203 31.6315 12.804C26.5648 12.7877 21.6959 14.7924 18.08 18.3836C14.4642 21.9748 12.3927 26.8632 12.3147 31.9892C12.2901 42.7662 20.9091 51.5554 31.5171 51.5803C34.0471 51.5864 36.5536 51.0882 38.8933 50.1141C41.233 49.14 43.3602 47.7091 45.1533 45.9032C46.9464 44.0972 48.3704 41.9515 49.3439 39.5887C50.3174 37.2258 50.8214 34.692 50.827 32.1321V32.1135Z" fill="#9D9EA2"/>
<path id="Vector_14" d="M45.0349 11.926L44.378 12.8577C39.7634 9.74574 34.2026 8.40216 28.6962 9.06872C28.3279 6.10894 27.9626 3.18332 27.5667 -0.00317383L45.0349 11.926Z" fill="#3B3B3B"/>
<path id="Vector_15" d="M8.85228 28.1537L0 26.5853L16.2926 13.2306L17.0324 14.0878C12.7394 17.6431 9.83927 22.6301 8.85228 28.1537Z" fill="#CCCCCC"/>
<path id="Vector_16" d="M46.6403 49.8162L52.4108 56.5184H31.6429V55.5307C37.2692 55.422 42.2325 53.5431 46.6403 49.8162Z" fill="#6E6E6E"/>
<path id="Vector_17" d="M9.17761 41.3841C9.5306 41.2226 9.7915 41.1046 10.1537 40.9369C12.2707 46.1203 16.1362 50.3759 21.0625 52.9468L17.0262 60.9969C14.3742 54.363 11.8051 47.9248 9.17761 41.3841Z" fill="#8C8C8C"/>
<path id="Vector_18" d="M52.7239 22.7092L60.597 19.15C58.5497 25.9299 56.5576 32.5047 54.5686 39.1013L54.2371 39.2069C54.0959 38.9181 53.792 38.6013 53.835 38.3435C55.0536 30.9363 54.9983 30.0295 52.7239 22.7092Z" fill="#4D4D4D"/>
<path id="Vector_19" d="M31.5539 49.8938C29.223 49.9162 26.9109 49.4699 24.7518 48.581C22.5926 47.6921 20.6294 46.3782 18.976 44.7156C17.3227 43.0529 16.0121 41.0746 15.1203 38.8955C14.2285 36.7163 13.7733 34.3796 13.781 32.0211C13.7887 29.6625 14.2592 27.3289 15.1653 25.1558C16.0713 22.9826 17.3948 21.0132 19.0591 19.3616C20.7233 17.7101 22.695 16.4094 24.8599 15.535C27.0249 14.6606 29.3398 14.2299 31.6706 14.2678C41.3332 14.2678 49.2217 22.3179 49.2186 32.1507C49.2155 41.9835 41.2994 49.8938 31.5539 49.8938Z" fill="#DA2128"/>
<path id="Vector_20" d="M30.9522 44.9278C30.0007 44.4277 29.0308 43.9588 28.1038 43.4184C25.9276 42.1419 23.9232 40.6511 22.3885 38.5951C21.2258 37.1055 20.6106 35.2535 20.6481 33.3558C20.7034 30.3991 20.6635 27.4548 20.6635 24.4857V23.9453C24.7796 23.8584 28.3616 22.5446 31.2837 19.5973C33.5459 22.2496 36.6123 23.0136 39.8383 23.4142C40.4829 23.4919 41.1336 23.4981 41.8273 23.5416V24.082C41.8273 27.0573 41.7536 30.0326 41.8488 33.0017C41.9347 35.5888 41.0016 37.6976 39.3195 39.5393C37.2446 41.8065 34.6939 43.3811 31.9529 44.6886C31.8086 44.7569 31.6735 44.8408 31.5324 44.9185L30.9522 44.9278ZM22.2258 25.4951V26.051C22.2258 28.4797 22.2534 30.9084 22.2258 33.3371C22.1872 34.867 22.6743 36.3631 23.604 37.5703C25.5654 40.1604 28.2419 41.7848 31.0842 43.1606C31.1418 43.1814 31.203 43.1905 31.2641 43.1873C31.3252 43.1841 31.3851 43.1687 31.4403 43.142C33.948 41.9338 36.29 40.4865 38.1931 38.4057C38.8922 37.686 39.4377 36.8286 39.7957 35.8867C40.1537 34.9448 40.3166 33.9385 40.2741 32.9303C40.1913 30.5047 40.2557 28.076 40.2557 25.6473V25.0976C36.9469 24.759 33.8406 23.9484 31.2039 21.8583C28.6169 23.915 25.5008 25.1772 22.2258 25.4951Z" fill="white"/>
<path id="Vector_21" d="M25.6575 33.5638L26.7226 32.4675L29.2334 35.0546L36.5141 27.6815L37.5178 28.8275L29.2641 37.1789L25.6575 33.5638Z" fill="white"/>
</g>
<defs>
<clipPath id="clip0_507_1551">
<rect width="168" height="61" fill="white"/>
</clipPath>
</defs>
</svg>
