<svg width="27" height="24" viewBox="0 0 27 24" fill="none" xmlns="http://www.w3.org/2000/svg">
<path id="Vector" fill-rule="evenodd" clip-rule="evenodd" d="M26.2185 5.17566C26.2185 2.31214 23.8968 -0.00952148 21.0333 -0.00952148C16.718 -0.00952148 9.79314 -0.00952148 5.47777 -0.00952148C2.61425 -0.00952148 0.292587 2.31214 0.292587 5.17566V22.0275C0.292587 22.5525 0.60889 23.0244 1.09241 23.2253C1.57723 23.4263 2.13463 23.3147 2.50536 22.944C2.50536 22.944 5.02536 20.424 6.55239 18.8983C7.03851 18.4121 7.69705 18.1386 8.38538 18.1386H21.0333C23.8968 18.1386 26.2185 15.8169 26.2185 12.9535V5.17566ZM23.626 5.17566C23.626 3.74454 22.4657 2.58307 21.0333 2.58307C16.718 2.58307 9.79314 2.58307 5.47777 2.58307C4.04666 2.58307 2.88518 3.74454 2.88518 5.17566V18.8983L4.71815 17.0653C5.69037 16.093 7.01001 15.546 8.38538 15.546H21.0333C22.4657 15.546 23.626 14.3858 23.626 12.9535V5.17566ZM6.77407 12.9535H17.1444C17.86 12.9535 18.4407 12.3727 18.4407 11.6571C18.4407 10.9416 17.86 10.3608 17.1444 10.3608H6.77407C6.05852 10.3608 5.47777 10.9416 5.47777 11.6571C5.47777 12.3727 6.05852 12.9535 6.77407 12.9535ZM6.77407 7.76826H19.7371C20.4526 7.76826 21.0333 7.18751 21.0333 6.47196C21.0333 5.7564 20.4526 5.17566 19.7371 5.17566H6.77407C6.05852 5.17566 5.47777 5.7564 5.47777 6.47196C5.47777 7.18751 6.05852 7.76826 6.77407 7.76826Z" fill="#DA2128"/>
</svg>
