<svg width="44" height="25" viewBox="0 0 44 25" fill="none" xmlns="http://www.w3.org/2000/svg">
<path id="Vector" d="M43.8241 1.29104C43.6009 0.782227 43.1738 0.37789 42.6364 0.166586C42.372 0.0598855 42.088 0.00329005 41.8006 0H30.8038C30.2205 0 29.6611 0.219388 29.2486 0.6099C28.8362 1.00041 28.6045 1.53006 28.6045 2.08233C28.6045 2.63459 28.8362 3.16424 29.2486 3.55475C29.6611 3.94527 30.2205 4.16465 30.8038 4.16465H36.5002L24.2057 15.8049L16.9698 8.93318C16.7654 8.73801 16.5221 8.5831 16.2541 8.47738C15.9861 8.37166 15.6986 8.31723 15.4083 8.31723C15.1179 8.31723 14.8305 8.37166 14.5625 8.47738C14.2945 8.5831 14.0512 8.73801 13.8467 8.93318L0.650568 21.4271C0.444425 21.6207 0.280805 21.851 0.169146 22.1048C0.0574875 22.3585 0 22.6307 0 22.9056C0 23.1805 0.0574875 23.4527 0.169146 23.7064C0.280805 23.9602 0.444425 24.1905 0.650568 24.384C0.855027 24.5792 1.09828 24.7341 1.36629 24.8399C1.6343 24.9456 1.92177 25 2.21211 25C2.50246 25 2.78993 24.9456 3.05794 24.8399C3.32595 24.7341 3.5692 24.5792 3.77366 24.384L15.4083 13.3477L22.6442 20.2194C22.8486 20.4146 23.0919 20.5695 23.3599 20.6752C23.6279 20.7809 23.9154 20.8353 24.2057 20.8353C24.4961 20.8353 24.7835 20.7809 25.0516 20.6752C25.3196 20.5695 25.5628 20.4146 25.7673 20.2194L39.6013 7.10074V12.494C39.6013 13.0462 39.833 13.5759 40.2454 13.9664C40.6579 14.3569 41.2173 14.5763 41.8006 14.5763C42.3839 14.5763 42.9434 14.3569 43.3558 13.9664C43.7683 13.5759 44 13.0462 44 12.494V2.08233C43.9965 1.81021 43.9367 1.54138 43.8241 1.29104Z" fill="white"/>
</svg>
