<svg width="82" height="57" viewBox="0 0 82 57" fill="none" xmlns="http://www.w3.org/2000/svg">
<g id="carbon:view-filled">
<path id="Vector" d="M39.8977 42.8663C41.4834 42.8663 42.7689 41.5808 42.7689 39.995C42.7689 38.4092 41.4834 37.1237 39.8977 37.1237C38.3119 37.1237 37.0264 38.4092 37.0264 39.995C37.0264 41.5808 38.3119 42.8663 39.8977 42.8663Z" fill="#DA2128"/>
<path id="Vector_2" d="M50.6217 39.7509C49.7774 37.5671 48.3117 35.6785 46.4057 34.3185C44.4998 32.9586 42.2371 32.1869 39.8974 32.099C37.5577 32.1869 35.295 32.9586 33.389 34.3185C31.4831 35.6785 30.0174 37.5671 29.1731 39.7509C29.1161 39.9087 29.1161 40.0814 29.1731 40.2391C30.0174 42.4229 31.4831 44.3115 33.389 45.6715C35.295 47.0314 37.5577 47.8031 39.8974 47.891C42.2371 47.8031 44.4998 47.0314 46.4057 45.6715C48.3117 44.3115 49.7774 42.4229 50.6217 40.2391C50.6787 40.0814 50.6787 39.9087 50.6217 39.7509ZM39.8974 44.6608C38.9746 44.6608 38.0725 44.3872 37.3052 43.8745C36.5379 43.3618 35.9399 42.6331 35.5867 41.7805C35.2336 40.928 35.1412 39.9898 35.3212 39.0847C35.5012 38.1797 35.9456 37.3483 36.5981 36.6958C37.2507 36.0432 38.082 35.5988 38.9871 35.4188C39.8922 35.2388 40.8304 35.3312 41.6829 35.6843C42.5355 36.0375 43.2642 36.6355 43.7769 37.4028C44.2896 38.1701 44.5632 39.0722 44.5632 39.995C44.5613 41.2319 44.0691 42.4176 43.1945 43.2922C42.3199 44.1668 41.1343 44.6589 39.8974 44.6608Z" fill="#DA2128"/>
</g>
</svg>
