<svg width="123" height="68" viewBox="0 0 123 68" fill="none" xmlns="http://www.w3.org/2000/svg">
<g id="Group 720">
<g id="Ellipse 19" filter="url(#filter0_d_59_360)">
<circle cx="88.931" cy="33.7268" r="22.2401" fill="white"/>
</g>
<g id="Ellipse 20" filter="url(#filter1_d_59_360)">
<circle cx="22.2401" cy="22.2401" r="21.7401" transform="matrix(-1 0 0 1 55.6157 11.4867)" stroke="#A3A3A3" shape-rendering="crispEdges"/>
</g>
<path id="Arrow 2" opacity="0.99" d="M28.8832 34.5304C28.4493 34.0964 28.4493 33.3929 28.8832 32.959L35.9543 25.8879C36.3882 25.454 37.0917 25.454 37.5256 25.8879C37.9595 26.3219 37.9595 27.0254 37.5256 27.4593L31.2402 33.7447L37.5256 40.0301C37.9595 40.464 37.9595 41.1675 37.5256 41.6014C37.0917 42.0353 36.3882 42.0353 35.9543 41.6014L28.8832 34.5304ZM30.3818 34.8558L29.6689 34.8558L29.6689 32.6336L30.3818 32.6336L30.3818 34.8558Z" fill="#9F9F9F"/>
<path id="Arrow 3" d="M93.4234 34.5304C93.8574 34.0964 93.8574 33.3929 93.4235 32.959L86.3524 25.8879C85.9185 25.454 85.215 25.454 84.781 25.8879C84.3471 26.3219 84.3471 27.0254 84.781 27.4593L91.0664 33.7447L84.781 40.0301C84.3471 40.464 84.3471 41.1675 84.781 41.6014C85.2149 42.0353 85.9185 42.0353 86.3524 41.6014L93.4234 34.5304ZM91.9248 34.8558L92.6378 34.8558L92.6378 32.6336L91.9248 32.6336L91.9248 34.8558Z" fill="#D61920"/>
</g>
<defs>
<filter id="filter0_d_59_360" x="55.5798" y="0.375554" width="66.7027" height="66.7025" filterUnits="userSpaceOnUse" color-interpolation-filters="sRGB">
<feFlood flood-opacity="0" result="BackgroundImageFix"/>
<feColorMatrix in="SourceAlpha" type="matrix" values="0 0 0 0 0 0 0 0 0 0 0 0 0 0 0 0 0 0 127 0" result="hardAlpha"/>
<feMorphology radius="3.33333" operator="dilate" in="SourceAlpha" result="effect1_dropShadow_59_360"/>
<feOffset/>
<feGaussianBlur stdDeviation="3.88889"/>
<feComposite in2="hardAlpha" operator="out"/>
<feColorMatrix type="matrix" values="0 0 0 0 0 0 0 0 0 0 0 0 0 0 0 0 0 0 0.03 0"/>
<feBlend mode="normal" in2="BackgroundImageFix" result="effect1_dropShadow_59_360"/>
<feBlend mode="normal" in="SourceGraphic" in2="effect1_dropShadow_59_360" result="shape"/>
</filter>
<filter id="filter1_d_59_360" x="0.0241437" y="0.375554" width="66.7027" height="66.7025" filterUnits="userSpaceOnUse" color-interpolation-filters="sRGB">
<feFlood flood-opacity="0" result="BackgroundImageFix"/>
<feColorMatrix in="SourceAlpha" type="matrix" values="0 0 0 0 0 0 0 0 0 0 0 0 0 0 0 0 0 0 127 0" result="hardAlpha"/>
<feMorphology radius="3.33333" operator="dilate" in="SourceAlpha" result="effect1_dropShadow_59_360"/>
<feOffset/>
<feGaussianBlur stdDeviation="3.88889"/>
<feComposite in2="hardAlpha" operator="out"/>
<feColorMatrix type="matrix" values="0 0 0 0 0 0 0 0 0 0 0 0 0 0 0 0 0 0 0.03 0"/>
<feBlend mode="normal" in2="BackgroundImageFix" result="effect1_dropShadow_59_360"/>
<feBlend mode="normal" in="SourceGraphic" in2="effect1_dropShadow_59_360" result="shape"/>
</filter>
</defs>
</svg>
